<svg width="32" height="32" viewBox="0 0 32 32" fill="none" xmlns="http://www.w3.org/2000/svg">
<g opacity="0.8">
<path d="M16.0498 4C19.2464 4.00131 22.2468 5.23964 24.5029 7.4873C26.759 9.73522 28.0012 12.7237 28 15.9014C27.9973 22.4585 22.6357 27.7939 16.0498 27.7939H16.0449C14.0452 27.7932 12.0802 27.294 10.335 26.3467L5.67676 27.5625C4.93183 27.757 4.25576 27.0714 4.45996 26.3291L5.69531 21.8369C4.64965 20.0334 4.09974 17.9876 4.10059 15.8916C4.10336 9.33468 9.46339 4.00014 16.0498 4ZM16.0498 5C10.0112 5.00014 5.10303 9.8919 5.10059 15.8926C5.09988 17.8126 5.60344 19.6853 6.56055 21.3359C6.69495 21.5679 6.73028 21.8441 6.65918 22.1025L5.42383 26.5947L10.082 25.3789L10.1748 25.3594C10.3924 25.3241 10.6163 25.3618 10.8115 25.4678C12.4101 26.3355 14.2118 26.7933 16.0459 26.7939H16.0498C22.0876 26.7939 26.9973 21.9021 27 15.9014C27.0011 12.9905 25.8658 10.2569 23.7979 8.19629C21.859 6.26453 19.3237 5.1469 16.5977 5.01367L16.0498 5ZM13.2363 10.0107H13.2373C13.2248 10.0101 13.2152 10.0099 13.2471 10.0098C13.2687 10.0096 13.32 10.0095 13.3779 10.0127C13.5032 10.0197 13.6882 10.0446 13.8916 10.1387C14.3156 10.3348 14.5606 10.7059 14.7168 11.0732C14.8305 11.3409 15.0251 11.8049 15.1953 12.21C15.2811 12.4141 15.3613 12.6037 15.4238 12.75C15.4883 12.9008 15.518 12.9693 15.5215 12.9775L15.5732 13.0859C15.6943 13.3671 15.8087 13.833 15.5449 14.3506H15.5439C15.4939 14.4487 15.4226 14.6117 15.29 14.8008L15.1357 14.9971C15.1034 15.0341 15.0357 15.1138 14.958 15.2051C15.1918 15.5453 15.5594 16.0232 16.0215 16.4268C16.7013 17.0206 17.2585 17.2807 17.6494 17.4502C17.6914 17.4011 17.7372 17.3512 17.7813 17.2988C17.9571 17.0897 18.1 16.9113 18.1572 16.8271L18.2383 16.7168C18.4413 16.4641 18.7396 16.2434 19.1514 16.1973C19.5137 16.1566 19.8336 16.2815 19.9287 16.3154C20.1124 16.381 20.5668 16.5928 20.9365 16.7676L21.8818 17.2217L22.251 17.4014C22.343 17.4509 22.5644 17.5715 22.7412 17.8018L22.8135 17.9072L22.8643 18C22.9693 18.2167 22.987 18.4291 22.9932 18.5059C23.0046 18.6488 23.0008 18.8024 22.9873 18.9561C22.9668 19.1883 22.9196 19.4562 22.8369 19.7412L22.7422 20.0312C22.5103 20.6677 21.9379 21.1149 21.5313 21.3701C21.098 21.642 20.5649 21.8735 20.1211 21.9385C19.5733 22.0187 18.8184 22.0613 17.9746 21.7988C17.5671 21.6722 17.0277 21.4984 16.3389 21.207C14.8078 20.5597 13.5766 19.4988 12.7275 18.6123C12.2986 18.1645 11.9559 17.7504 11.7119 17.4355C11.5898 17.278 11.4925 17.145 11.4209 17.0459C11.3853 16.9966 11.3559 16.9551 11.335 16.9258C11.3209 16.906 11.3136 16.8958 11.3105 16.8916C11.2322 16.7892 10.9141 16.3751 10.6143 15.7969C10.3218 15.2328 10.0001 14.4248 10 13.543C10 11.8137 10.9665 10.9161 11.2168 10.6484L11.3984 10.4756C11.8301 10.1107 12.3164 10 12.6689 10L13.2363 10.0107ZM12.6689 11C12.4885 11 12.1954 11.0668 11.9473 11.332C11.699 11.5975 11 12.2389 11 13.543C11.0002 14.8474 11.9702 16.1073 12.1055 16.2842C12.2421 16.4631 14.0147 19.1387 16.7285 20.2861C17.3741 20.5592 17.8785 20.7216 18.2715 20.8438C18.9196 21.0454 19.5093 21.0175 19.9756 20.9492C20.4955 20.8732 21.5769 20.3083 21.8027 19.6895C22.0281 19.0705 22.0285 18.5396 21.9609 18.4287C21.8933 18.3182 21.7128 18.2517 21.4424 18.1191C21.1718 17.9865 19.8413 17.3456 19.5928 17.2568C19.3447 17.1684 19.1638 17.1244 18.9834 17.3896C18.8029 17.655 18.285 18.2517 18.127 18.4287C17.9691 18.6056 17.8106 18.6279 17.54 18.4951C17.2692 18.3625 16.3976 18.0823 15.3643 17.1797C14.5598 16.477 14.0163 15.6092 13.8584 15.3438C13.7006 15.0785 13.8411 14.9348 13.9766 14.8027C14.0983 14.6841 14.2476 14.4936 14.3828 14.3389C14.5181 14.1842 14.5632 14.0732 14.6533 13.8965C14.7435 13.7196 14.6986 13.5643 14.6309 13.4316C14.5624 13.2968 14.0222 11.9941 13.7969 11.4639C13.5772 10.9473 13.3536 11.018 13.1875 11.0098C13.0299 11.0021 12.8493 11 12.6689 11Z" fill="black"/>
</g>
</svg>
