<svg width="24" height="24" viewBox="0 0 24 24" fill="none" xmlns="http://www.w3.org/2000/svg">
<mask id="path-1-outside-1_2002_350" maskUnits="userSpaceOnUse" x="4" y="4" width="18" height="18" fill="black">
<rect fill="white" x="4" y="4" width="18" height="18"/>
<path d="M12.5 5C16.6422 5 20.0008 8.35784 20.001 12.5C20.001 13.8351 19.6496 15.0878 19.0381 16.1738L19.9746 19.9746L16.0381 19.1143C14.9841 19.6792 13.7796 20.001 12.5 20.001C8.35784 20.0008 5 16.6422 5 12.5C5.00014 8.35793 8.35793 5.00014 12.5 5Z"/>
</mask>
<path d="M12.5 5C16.6422 5 20.0008 8.35784 20.001 12.5C20.001 13.8351 19.6496 15.0878 19.0381 16.1738L19.9746 19.9746L16.0381 19.1143C14.9841 19.6792 13.7796 20.001 12.5 20.001C8.35784 20.0008 5 16.6422 5 12.5C5.00014 8.35793 8.35793 5.00014 12.5 5Z" fill="white"/>
<path d="M12.5 5V4H12.5L12.5 5ZM20.001 12.5H21.001V12.5L20.001 12.5ZM19.0381 16.1738L18.1667 15.6832C18.0419 15.9049 18.0062 16.166 18.0671 16.4131L19.0381 16.1738ZM19.9746 19.9746L19.7611 20.9515C20.0985 21.0253 20.45 20.9197 20.691 20.6723C20.9319 20.4249 21.0282 20.0707 20.9456 19.7354L19.9746 19.9746ZM16.0381 19.1143L16.2516 18.1373C16.0189 18.0865 15.7756 18.1203 15.5657 18.2329L16.0381 19.1143ZM12.5 20.001L12.5 21.001H12.5V20.001ZM5 12.5L4 12.5V12.5H5ZM12.5 5V6C16.09 6 19.0009 8.91027 19.001 12.5L20.001 12.5L21.001 12.5C21.0008 7.80541 17.1943 4 12.5 4V5ZM20.001 12.5H19.001C19.001 13.6574 18.6968 14.7418 18.1667 15.6832L19.0381 16.1738L19.9094 16.6645C20.6024 15.4339 21.001 14.0129 21.001 12.5H20.001ZM19.0381 16.1738L18.0671 16.4131L19.0037 20.2139L19.9746 19.9746L20.9456 19.7354L20.009 15.9346L19.0381 16.1738ZM19.9746 19.9746L20.1881 18.9977L16.2516 18.1373L16.0381 19.1143L15.8246 20.0912L19.7611 20.9515L19.9746 19.9746ZM16.0381 19.1143L15.5657 18.2329C14.6527 18.7223 13.61 19.001 12.5 19.001V20.001V21.001C13.9491 21.001 15.3154 20.6362 16.5105 19.9956L16.0381 19.1143ZM12.5 20.001L12.5 19.001C8.91027 19.0009 6 16.09 6 12.5H5H4C4 17.1943 7.80541 21.0008 12.5 21.001L12.5 20.001ZM5 12.5L6 12.5C6.00012 8.91022 8.91022 6.00012 12.5 6L12.5 5L12.5 4C7.80563 4.00016 4.00016 7.80563 4 12.5L5 12.5Z" fill="black" mask="url(#path-1-outside-1_2002_350)"/>
<path d="M9.5 11H15.5M9.5 14H14" stroke="black" stroke-linecap="round"/>
</svg>
