<svg width="24" height="24" viewBox="0 0 24 24" fill="none" xmlns="http://www.w3.org/2000/svg">
<path d="M11.5 3C15.09 3 18 6.00347 18 9.70801L17.9883 10.0977C17.7374 14.1293 13.7007 18.2738 12.124 19.7471C11.7689 20.0789 11.2311 20.0789 10.876 19.7471C9.29919 18.2736 5.26361 14.1291 5.0127 10.0977L5 9.70801C5 6.00354 7.91013 3.00011 11.5 3ZM11.5 4C8.49179 4.00011 6 6.52598 6 9.70801C6.00012 11.4715 6.91826 13.391 8.14648 15.1387C9.32665 16.818 10.7013 18.2087 11.5 18.96C12.2987 18.2087 13.6742 16.8181 14.8545 15.1387C16.0826 13.391 16.9999 11.4714 17 9.70801C17 6.52591 14.5083 4 11.5 4ZM11.5 6.64355C13.1753 6.64355 14.5332 8.07116 14.5332 9.83203L14.5293 9.99609C14.4479 11.6805 13.1228 13.0205 11.5 13.0205L11.3438 13.0156C9.79297 12.9328 8.54948 11.6261 8.4707 9.99609L8.4668 9.83203C8.4668 8.07124 9.82479 6.64368 11.5 6.64355ZM11.5 7.64355C10.4234 7.64368 9.4668 8.57601 9.4668 9.83203C9.46697 11.0879 10.4235 12.0204 11.5 12.0205C12.5766 12.0205 13.533 11.088 13.5332 9.83203C13.5332 8.57592 12.5767 7.64355 11.5 7.64355Z" fill="#383838"/>
</svg>
