<svg width="210" height="24" viewBox="0 0 210 24" fill="none" xmlns="http://www.w3.org/2000/svg">
<path d="M175.688 4.35352C183.345 4.3536 186.628 6.56116 186.628 11.6768C186.628 16.7922 183.345 18.9989 175.688 18.999C168.048 18.999 164.746 16.7923 164.746 11.6768C164.746 6.56106 168.048 4.35352 175.688 4.35352ZM108.65 4.45215C114.139 4.45215 116.99 5.38126 117.021 5.3916V8.00879C116.993 8.00615 113.432 7.05082 108.67 7.05078C104.839 7.05078 101.335 7.16772 101.335 11.6807C101.335 15.8793 104.308 16.2891 108.712 16.2891C113.576 16.2891 116.99 15.3582 117.021 15.3496V17.9658C116.993 17.9746 113.939 18.9047 108.65 18.9092C102.925 18.9091 98.0762 17.7942 98.0762 11.6807C98.0764 5.56751 102.925 4.45221 108.65 4.45215ZM11.0625 15.916H11.6953L16.2354 4.84375H22.7578V18.5137H19.4941V7.44238H18.3359L13.792 18.5137H8.96191L4.44141 7.44238H3.25879V18.5137H0V4.84375H6.51855L11.0625 15.916ZM32.1279 15.916H33.1455L42.417 4.84375H48.2031V18.5137H44.9443V7.4375H44.0674L34.8623 18.5137H28.8691V4.84375H32.1279V15.916ZM95.7686 18.5137H92.2471L91.0469 16.3291H78.8447L77.6445 18.5137H74.1172L81.6582 4.84375H88.2373L95.7686 18.5137ZM137.918 7.44238H130.852V18.5137H127.587V7.44238H120.521V4.84375H137.918V7.44238ZM193.925 15.916H194.947L204.213 4.84375H210V18.5137H206.741V7.4375H205.864L196.658 18.5137H190.665V4.84375H193.925V15.916ZM61.5498 4.5293C68.2322 4.52933 73.4697 5.54515 73.4697 9.76172C73.4695 15.6145 62.0791 15.3271 62.0791 15.3271C59.1252 15.3631 58.6748 15.327 56.8838 15.2686V18.5098H53.624V4.83887C56.3346 4.66355 59.0409 4.5293 61.5498 4.5293ZM149.773 4.5293C156.456 4.5293 161.694 5.5451 161.694 9.76172C161.694 15.5937 150.384 15.3291 150.304 15.3271C147.349 15.3631 146.899 15.327 145.107 15.2686V18.5098H141.849V4.83887C144.559 4.66356 147.265 4.5293 149.773 4.5293ZM175.688 6.95215C170.163 6.95215 168.006 8.28248 168.006 11.6807C168.006 15.0791 170.163 16.4053 175.688 16.4053C181.207 16.4052 183.368 15.0791 183.368 11.6807C183.368 8.28257 181.206 6.95222 175.688 6.95215ZM80.2939 13.7305H89.6025L86.1367 7.44238H83.7549L80.2939 13.7305ZM62.2012 7.12695C60.5319 7.12696 58.6984 7.20777 56.8838 7.28418V12.6562C58.2107 12.7102 59.5141 12.7334 60.7754 12.7334C65.9478 12.7334 70.2108 12.1666 70.2109 9.78418C70.2109 7.63541 66.7031 7.12695 62.2012 7.12695ZM150.425 7.12695C148.755 7.12697 146.922 7.20777 145.107 7.28418V12.6562C146.435 12.7102 147.739 12.7334 149 12.7334C154.177 12.7334 158.434 12.1665 158.435 9.78418C158.435 7.63541 154.927 7.12695 150.425 7.12695ZM203.58 1V2.45703H197.095V1H203.58Z" fill="#383838"/>
</svg>
