<svg width="360" height="50" viewBox="0 0 360 50" fill="none" xmlns="http://www.w3.org/2000/svg">
<path d="M158.951 47.001H160.241V50.001H159.078V48.0918H151.87L151.857 50.001H150.694L150.707 47.001H151.133C152.334 46.9249 152.62 44.814 152.709 42.1572L152.799 39.3477H158.951V47.001ZM111.432 39.251C114.101 39.251 116.078 41.1472 116.078 43.7217C116.078 46.2961 114.095 48.1924 111.432 48.1924C108.737 48.1924 106.76 46.2834 106.76 43.7217C106.76 41.1599 108.743 39.251 111.432 39.251ZM80.0001 39.2461C81.3539 39.2461 82.5302 39.7089 83.3311 40.6094L82.5167 41.3955C81.843 40.6855 81.0168 40.3623 80.0508 40.3623C78.0742 40.3623 76.6057 41.7697 76.6055 43.71C76.6055 45.6504 78.0741 47.0713 80.0508 47.0713C81.017 47.0713 81.8429 46.7346 82.5167 46.0244L83.3311 46.8115C82.5302 47.7119 81.3539 48.1875 79.9874 48.1875C77.3305 48.1875 75.3537 46.3039 75.3536 43.7168C75.3536 41.1296 77.3368 39.2461 80.0001 39.2461ZM219.107 39.2461C220.46 39.2461 221.637 39.7089 222.438 40.6094L221.624 41.3955C220.95 40.6853 220.123 40.3623 219.157 40.3623C217.174 40.3625 215.713 41.7699 215.713 43.71C215.713 45.6502 217.181 47.0711 219.157 47.0713C220.123 47.0713 220.95 46.7346 221.624 46.0244L222.438 46.8115C221.637 47.7118 220.46 48.1875 219.094 48.1875C216.437 48.1874 214.46 46.3038 214.46 43.7168C214.46 41.1297 216.443 39.2462 219.107 39.2461ZM171.143 48.085H169.916V40.4316H166.032L165.943 42.9932C165.829 46.4615 165.295 48.1862 163.566 48.1865C163.319 48.1865 163.076 48.1611 162.777 48.085L162.867 46.9756C163.02 47.0136 163.128 47.0264 163.268 47.0264C164.354 47.0261 164.729 45.7387 164.831 43.0312L164.971 39.3408H171.143V48.085ZM92.9922 40.4385H89.9922V48.0918H88.7657V40.4385H85.7715V39.3477H92.9922V40.4385ZM99.9522 39.3477C102.234 39.3477 103.607 40.5016 103.607 42.3975C103.607 44.2998 102.228 45.4482 99.9522 45.4482H97.7852V48.0918H96.5333V39.3477H99.9522ZM121.36 46.0947L126.547 39.3477H127.697V48.0918H126.471V41.3574L121.277 48.0918H120.121V39.3477H121.36V46.0947ZM137.124 45.4922L140.728 39.3477H141.758L141.771 48.0918H140.568L140.556 41.7256L137.391 47.0332H136.813L133.647 41.7568V48.0918H132.445V39.3477H133.469L137.124 45.4922ZM182.304 48.0918H181.077V45.543H178.662C178.554 45.543 178.44 45.5429 178.325 45.5303L176.57 48.0918H175.242L177.181 45.3213C175.941 44.9091 175.242 43.9131 175.242 42.499C175.242 40.5017 176.634 39.3477 178.789 39.3477H182.304V48.0918ZM196.192 39.3477C198.099 39.3477 199.25 40.1403 199.25 41.5986C199.25 42.5561 198.735 43.2352 197.883 43.5586C199.059 43.8503 199.688 44.5729 199.682 45.708C199.682 47.2043 198.582 48.0917 196.428 48.0918H192.423V39.3477H196.192ZM211.777 48.0918H210.462L209.496 45.9043H204.837L203.87 48.0918H202.58L206.547 39.3477H207.799L211.777 48.0918ZM193.669 47.1094H196.408C197.724 47.1094 198.423 46.6332 198.423 45.6123C198.423 44.598 197.724 44.1475 196.408 44.1475H193.669V47.1094ZM111.432 40.3545C109.461 40.3545 108.012 41.7746 108.012 43.7148C108.012 45.6552 109.468 47.0762 111.432 47.0762C113.377 47.0762 114.826 45.6552 114.826 43.7148C114.826 41.7746 113.37 40.3545 111.432 40.3545ZM153.809 42.2773C153.739 44.4077 153.523 46.3355 152.773 47.0078H157.712V40.4385H153.873L153.809 42.2773ZM205.269 44.9092H209.045L207.157 40.6221L205.269 44.9092ZM178.84 40.4385C177.353 40.4385 176.514 41.1358 176.514 42.4863C176.514 43.7736 177.276 44.4971 178.764 44.4971H181.077V40.4385H178.84ZM97.7852 44.3574H99.9141C101.516 44.3574 102.356 43.6467 102.356 42.3975C102.355 41.1484 101.516 40.4385 99.9141 40.4385H97.7852V44.3574ZM193.669 43.1963H196.109C197.311 43.1963 197.984 42.7148 197.984 41.7764C197.984 40.8379 197.311 40.3369 196.109 40.3369H193.669V43.1963Z" fill="white"/>
<path d="M313.491 5.37109C323.871 5.37109 328.32 8.48492 328.32 15.7012C328.32 22.9172 323.871 26.0303 313.491 26.0303C303.137 26.0303 298.662 22.9172 298.662 15.7012C298.662 8.48493 303.137 5.3711 313.491 5.37109ZM222.628 5.5127C230.062 5.5127 233.925 6.82146 233.973 6.83789V10.5283C233.911 10.5181 229.093 9.17773 222.653 9.17773C217.46 9.17774 212.712 9.34287 212.712 15.709C212.712 21.6316 216.742 22.209 222.711 22.209C229.296 22.209 233.92 20.8989 233.973 20.8838V24.5742C233.926 24.5894 229.788 25.8999 222.628 25.9062C214.867 25.9062 208.295 24.3329 208.295 15.709C208.295 7.08536 214.867 5.51273 222.628 5.5127ZM90.3542 21.6797H91.2126L97.3649 6.06152H106.207V25.3457H101.783V9.72656H100.213L94.0534 25.3457H87.5065L81.3796 9.72656H79.778V25.3457H75.36V6.06152H84.195L90.3542 21.6797ZM118.907 21.6797H120.286L132.852 6.06152H140.696V25.3447H136.278V9.7207H135.09L122.612 25.3447H114.489V6.06152H118.907V21.6797ZM205.168 25.3447H200.394L198.767 22.2637H182.228L180.6 25.3447H175.821L186.042 6.06152H194.96L205.168 25.3447ZM262.298 9.72656H252.718V25.3447H248.295V9.72656H238.716V6.06152H262.298V9.72656ZM338.211 21.6797H339.596L352.156 6.06152H360V25.3447H355.583V9.7207H354.393L341.917 25.3447H333.793V6.06152H338.211V21.6797ZM158.786 5.61816C167.843 5.61816 174.944 7.05123 174.944 12.999C174.944 21.236 159.576 20.8514 159.505 20.8496C155.5 20.9003 154.89 20.85 152.462 20.7676V25.3389H148.044V6.05566C151.717 5.80836 155.385 5.61817 158.786 5.61816ZM278.366 5.61816C287.423 5.61816 294.524 7.05123 294.524 12.999C294.524 21.2318 279.172 20.8518 279.085 20.8496C275.08 20.9003 274.47 20.85 272.042 20.7676V25.3389H267.624V6.05566C271.298 5.80836 274.965 5.61817 278.366 5.61816ZM313.491 9.03613C306.003 9.03614 303.08 10.9132 303.08 15.707C303.08 20.5009 306.003 22.3721 313.491 22.3721C320.972 22.3721 323.902 20.501 323.902 15.707C323.902 10.9132 320.972 9.03613 313.491 9.03613ZM184.192 18.5977H196.809L192.112 9.72656H188.883L184.192 18.5977ZM159.67 9.2832C157.407 9.2832 154.921 9.39708 152.462 9.50488V17.083C154.26 17.1591 156.027 17.1904 157.737 17.1904C164.748 17.1904 170.526 16.3918 170.526 13.0312C170.526 10.0002 165.772 9.28321 159.67 9.2832ZM279.25 9.2832C276.987 9.2832 274.502 9.39708 272.042 9.50488V17.083C273.84 17.1591 275.607 17.1904 277.317 17.1904C284.334 17.1904 290.106 16.3918 290.106 13.0312C290.106 10.0002 285.352 9.28321 279.25 9.2832ZM351.298 0.641602V2.69629H342.508V0.641602H351.298Z" fill="white"/>
<path d="M61.9481 46.6012V6.08752L55.255 9.60053L5.4791 35.6691V35.6754V46.6012H1.60813V33.5131L61.9354 1.7882V0L0 32.5365V46.5949V48.1865H61.9481V46.6012ZM37.7181 26.3222V46.6012H33.8852V28.3323L36.8854 26.7597L37.7181 26.3222ZM23.0287 34.0204L26.8616 32.0165V46.6076H23.0287V34.0204ZM21.4333 46.6012H17.6005V36.8612L21.4333 34.8574V46.6012ZM28.457 31.1732L32.2898 29.1694V46.6012H28.457V31.1732ZM12.1722 39.702L15.5156 37.9519L15.9987 37.6982V46.6012H12.1659V39.702H12.1722ZM55.255 46.6012H39.3135V25.4852L55.255 17.1338V46.6012Z" fill="#FFE500"/>
<path d="M360 46.6016H235.843V48.1932H360V46.6016Z" fill="#FFE500"/>
</svg>
