<svg width="24" height="24" viewBox="0 0 24 24" fill="none" xmlns="http://www.w3.org/2000/svg">
<path d="M16.7559 6.0127C18.0163 6.14089 19 7.20571 19 8.5V15.5C19 16.8807 17.8806 17.9999 16.5 18H4.50098C3.20648 18 2.14159 17.0166 2.01367 15.7559L2.00098 15.5V8.5C2.00098 7.11929 3.12026 6 4.50098 6H16.5L16.7559 6.0127ZM11.3877 12.4268C10.8597 12.814 10.1413 12.814 9.61328 12.4268L3.21289 7.73242C3.07872 7.95707 3.00098 8.21932 3.00098 8.5V15.5L3.00879 15.6543C3.08582 16.4105 3.72449 17 4.50098 17H16.5C17.3284 16.9999 18 16.3284 18 15.5V8.5C18 8.21916 17.9214 7.95714 17.7871 7.73242L11.3877 12.4268ZM4.50098 7C4.33105 7 4.16791 7.02899 4.01562 7.08105L10.2051 11.6201C10.381 11.7491 10.6199 11.7491 10.7959 11.6201L16.9834 7.08105C16.878 7.04516 16.7678 7.01944 16.6533 7.00781L16.5 7H4.50098Z" fill="#383838"/>
</svg>
