<svg width="24" height="24" viewBox="0 0 24 24" fill="none" xmlns="http://www.w3.org/2000/svg">
<path d="M7.12402 5.5C7.35472 5.5 7.59493 5.50211 7.80859 5.5127H7.86426C7.89236 5.51254 7.93588 5.51292 7.9834 5.51562C8.08378 5.52135 8.21665 5.54008 8.35938 5.60742C8.65223 5.74581 8.85884 6.02288 9.02051 6.41113C9.16449 6.75722 9.40989 7.35693 9.62793 7.88672C9.73726 8.15237 9.84036 8.40122 9.9209 8.59375C9.96111 8.68986 9.99488 8.77116 10.0215 8.83301C10.0348 8.86388 10.0461 8.88897 10.0547 8.9082C10.059 8.91782 10.0628 8.92604 10.0654 8.93164C10.0673 8.93558 10.068 8.9378 10.0684 8.93848L10.1123 9.0332C10.2124 9.2694 10.2869 9.6089 10.0977 9.98828C9.99441 10.195 9.90716 10.4063 9.68555 10.665C9.54545 10.8288 9.31405 11.1261 9.1416 11.2979C9.10373 11.3356 9.08018 11.3603 9.0625 11.3809C9.06475 11.3851 9.06734 11.3904 9.07031 11.3955C9.26319 11.7266 9.9226 12.7999 10.8867 13.6602C11.8246 14.4969 12.6311 14.888 13.1416 15.1143L13.5479 15.2969L13.6738 15.3467C13.679 15.3415 13.6863 15.3362 13.6934 15.3281C13.9 15.0916 14.5372 14.3415 14.7451 14.0293L14.8105 13.9375C14.9718 13.7313 15.1831 13.5825 15.459 13.5508C15.7192 13.521 15.9646 13.612 16.1074 13.6641C16.2955 13.7327 16.8276 13.9852 17.3193 14.2227C17.8271 14.4678 18.339 14.7202 18.5137 14.8076C18.6568 14.8793 18.8372 14.9625 18.957 15.0283C19.0629 15.0865 19.2172 15.1788 19.332 15.3311L19.3789 15.4004L19.4316 15.5127C19.4742 15.6273 19.4871 15.7448 19.4932 15.8223C19.5034 15.9529 19.5016 16.1057 19.4873 16.2715C19.4586 16.6045 19.3778 17.0205 19.2197 17.4639C19.0183 18.0284 18.4826 18.4895 17.9971 18.8008C17.4996 19.1197 16.9227 19.3653 16.498 19.4287C15.863 19.5237 15.028 19.5681 14.1035 19.2744C13.596 19.1133 12.9363 18.8947 12.0928 18.5303C10.2775 17.7463 8.79475 16.4499 7.75293 15.3389C7.22993 14.7811 6.8124 14.2645 6.51465 13.8721C6.36578 13.6759 6.2465 13.5102 6.15918 13.3867C6.11561 13.3251 6.07948 13.2737 6.05273 13.2354C6.03917 13.2159 6.02809 13.2006 6.01953 13.1885C6.01534 13.1825 6.0123 13.1774 6.00977 13.1738C6.00732 13.1704 6.00586 13.1689 6.00586 13.1689C5.91422 13.0466 5.54202 12.5521 5.19238 11.8633C4.84615 11.1811 4.50009 10.2659 4.5 9.30566C4.5 7.40159 5.51881 6.44129 5.83691 6.09375C6.26334 5.62807 6.77976 5.50002 7.12402 5.5Z" fill="white" stroke="#383838"/>
</svg>
