<svg width="24" height="24" viewBox="0 0 24 24" fill="none" xmlns="http://www.w3.org/2000/svg">
<path d="M6.12402 4.5C6.35472 4.5 6.59493 4.50211 6.80859 4.5127H6.86426C6.89236 4.51254 6.93588 4.51292 6.9834 4.51562C7.08378 4.52135 7.21665 4.54008 7.35938 4.60742C7.65223 4.74581 7.85884 5.02288 8.02051 5.41113C8.16449 5.75722 8.40989 6.35693 8.62793 6.88672C8.73726 7.15237 8.84036 7.40122 8.9209 7.59375C8.96111 7.68986 8.99488 7.77116 9.02148 7.83301C9.03477 7.86388 9.04611 7.88897 9.05469 7.9082C9.05898 7.91782 9.06284 7.92604 9.06543 7.93164C9.06726 7.93558 9.06803 7.9378 9.06836 7.93848L9.1123 8.0332C9.2124 8.2694 9.28687 8.6089 9.09766 8.98828C8.99441 9.19497 8.90716 9.40627 8.68555 9.66504C8.54545 9.82876 8.31405 10.1261 8.1416 10.2979C8.10373 10.3356 8.08018 10.3603 8.0625 10.3809C8.06475 10.3851 8.06734 10.3904 8.07031 10.3955C8.26319 10.7266 8.9226 11.7999 9.88672 12.6602C10.8246 13.4969 11.6311 13.888 12.1416 14.1143L12.5479 14.2969L12.6738 14.3467C12.679 14.3415 12.6863 14.3362 12.6934 14.3281C12.9 14.0916 13.5372 13.3415 13.7451 13.0293L13.8105 12.9375C13.9718 12.7313 14.1831 12.5825 14.459 12.5508C14.7192 12.521 14.9646 12.612 15.1074 12.6641C15.2955 12.7327 15.8276 12.9852 16.3193 13.2227C16.8271 13.4678 17.339 13.7202 17.5137 13.8076C17.6568 13.8793 17.8372 13.9625 17.957 14.0283C18.0629 14.0865 18.2172 14.1788 18.332 14.3311L18.3789 14.4004L18.4316 14.5127C18.4742 14.6273 18.4871 14.7448 18.4932 14.8223C18.5034 14.9529 18.5016 15.1057 18.4873 15.2715C18.4586 15.6045 18.3778 16.0205 18.2197 16.4639C18.0183 17.0284 17.4826 17.4895 16.9971 17.8008C16.4996 18.1197 15.9227 18.3653 15.498 18.4287C14.863 18.5237 14.028 18.5681 13.1035 18.2744C12.596 18.1133 11.9363 17.8947 11.0928 17.5303C9.2775 16.7463 7.79475 15.4499 6.75293 14.3389C6.22993 13.7811 5.8124 13.2645 5.51465 12.8721C5.36578 12.6759 5.2465 12.5102 5.15918 12.3867C5.11561 12.3251 5.07948 12.2737 5.05273 12.2354C5.03917 12.2159 5.02809 12.2006 5.01953 12.1885C5.01534 12.1825 5.0123 12.1774 5.00977 12.1738C5.00732 12.1704 5.00586 12.1689 5.00586 12.1689C4.91422 12.0466 4.54202 11.5521 4.19238 10.8633C3.84615 10.1811 3.50009 9.26586 3.5 8.30566C3.5 6.40159 4.51881 5.44129 4.83691 5.09375C5.26334 4.62807 5.77976 4.50002 6.12402 4.5Z" stroke="#383838"/>
</svg>
