<svg width="24" height="24" viewBox="0 0 24 24" fill="none" xmlns="http://www.w3.org/2000/svg">
<path fill-rule="evenodd" clip-rule="evenodd" d="M17.3017 14.3311C17.0088 14.1852 15.5686 13.48 15.3001 13.3826C15.0316 13.2853 14.8364 13.2368 14.6411 13.5285C14.4458 13.8203 13.8844 14.477 13.7135 14.6716C13.5427 14.8661 13.3718 14.8906 13.0789 14.7445C12.786 14.5987 11.8421 14.2909 10.7232 13.2976C9.85246 12.5246 9.26452 11.5699 9.09367 11.2781C8.92279 10.9862 9.07542 10.8284 9.22207 10.6831C9.35391 10.5525 9.51505 10.3426 9.66147 10.1723C9.80799 10.0022 9.85678 9.88048 9.95441 9.68602C10.052 9.49142 10.0032 9.32121 9.92995 9.1753C9.85678 9.0294 9.27095 7.59442 9.02686 7.01062C8.78906 6.44224 8.54758 6.51922 8.36777 6.51021C8.19711 6.50179 8.00158 6.5 7.80636 6.5C7.6111 6.5 7.2937 6.57295 7.02519 6.86472C6.75671 7.15657 6 7.86193 6 9.29677C6 10.7318 7.0496 12.1179 7.19607 12.3125C7.34254 12.5071 9.26162 15.4517 12.2002 16.7144C12.899 17.0149 13.4447 17.1942 13.8701 17.3285C14.5718 17.5505 15.2103 17.5192 15.7151 17.4441C16.2779 17.3604 17.4482 16.7389 17.6923 16.058C17.9364 15.3769 17.9364 14.7932 17.8631 14.6716C17.7899 14.55 17.5947 14.477 17.3017 14.3311Z" fill="white"/>
<path fill-rule="evenodd" clip-rule="evenodd" d="M12.0502 21.7853H12.0462C10.2639 21.7846 8.51587 21.3081 6.99094 20.4075L6.62822 20.1933L2.86912 21.1746L3.87248 17.527L3.63637 17.153C2.64211 15.5793 2.11697 13.7603 2.11777 11.8925C2.11997 6.44256 6.57558 2.00864 12.0541 2.00864C14.707 2.00953 17.2008 3.03906 19.0761 4.90747C20.9513 6.77584 21.9834 9.25934 21.9824 11.9005C21.9801 17.3509 17.5245 21.7853 12.0502 21.7853ZM20.5033 3.48775C18.2471 1.23984 15.2468 0.00130622 12.0501 0C5.46347 0 0.102797 5.3347 0.100125 11.8918C0.0992813 13.9879 0.6495 16.0337 1.69528 17.8373L0 24L6.33473 22.3462C8.08017 23.2937 10.0453 23.7931 12.0453 23.7938H12.0502C18.6361 23.7938 23.9973 18.4585 24 11.9013C24.0012 8.7236 22.7594 5.73567 20.5033 3.48775Z" fill="white"/>
</svg>
