<svg width="30" height="30" viewBox="0 0 30 30" fill="none" xmlns="http://www.w3.org/2000/svg">
<path d="M15.0371 7C17.4347 7.00098 19.6858 7.93028 21.3779 9.61621C23.0697 11.302 24.0009 13.5428 24 15.9258C23.998 20.8435 19.9773 24.8455 15.0381 24.8457H15.0342C13.5342 24.8452 12.0601 24.4704 10.751 23.7598L6 25L7.27148 20.3779C6.48718 19.0253 6.07458 17.491 6.0752 15.9189C6.0772 11.0013 10.0974 7.00024 15.0371 7ZM15.041 8.50684C10.9322 8.50684 7.58979 11.8317 7.58789 15.9189C7.58729 17.3198 7.98184 18.6849 8.72754 19.8652L8.9043 20.1455L8.15137 22.8809L10.9707 22.1445L11.2432 22.3057C12.3867 22.981 13.6976 23.3383 15.0342 23.3389H15.0381C19.1435 23.3386 22.4844 20.0133 22.4863 15.9258C22.4871 13.9449 21.7131 12.0819 20.3066 10.6807C18.9003 9.27956 17.0304 8.50761 15.041 8.50684ZM12.2754 11.8828C12.4102 11.8896 12.5922 11.8315 12.7705 12.2578C12.9534 12.6951 13.3914 13.769 13.4473 13.8809C13.5022 13.9903 13.539 14.1187 13.4658 14.2646C13.3927 14.4103 13.3559 14.5014 13.2461 14.6289C13.1364 14.7564 13.0158 14.9137 12.917 15.0117C12.807 15.1207 12.6924 15.2393 12.8203 15.458C12.9484 15.6769 13.3892 16.393 14.042 16.9727C14.8811 17.7176 15.5899 17.9492 15.8096 18.0586C16.0289 18.1678 16.1572 18.1495 16.2852 18.0039C16.4133 17.8581 16.8338 17.3655 16.9805 17.1465C17.1269 16.9278 17.2734 16.9642 17.4746 17.0371C17.676 17.1102 18.7569 17.6386 18.9766 17.748C19.1962 17.8575 19.3426 17.9127 19.3975 18.0039C19.4522 18.0958 19.4522 18.5329 19.2695 19.043C19.0864 19.5537 18.2082 20.0203 17.7861 20.083C17.4076 20.1393 16.9285 20.1625 16.4023 19.9961C16.0834 19.8954 15.6742 19.7613 15.1504 19.5361C12.9478 18.5897 11.5089 16.3828 11.3975 16.2344C11.2876 16.0884 10.5001 15.0488 10.5 13.9727C10.5 12.8968 11.067 12.3674 11.2686 12.1484C11.4698 11.9298 11.708 11.8751 11.8545 11.875C12.0007 11.875 12.1475 11.8765 12.2754 11.8828Z" fill="white"/>
</svg>
