<svg width="24" height="24" viewBox="0 0 24 24" fill="none" xmlns="http://www.w3.org/2000/svg">
<path d="M10.5 0C16.299 0 21 4.70101 21 10.5C21 12.7764 20.2728 14.8815 19.042 16.6016L23.5635 19.8652C24.0464 20.2584 24.1437 21.0015 23.7812 21.5254C23.4187 22.0495 22.7334 22.1558 22.25 21.7627L17.4932 18.3291C15.6361 19.989 13.1868 21 10.5 21C4.70101 21 0 16.299 0 10.5C0 4.70101 4.70101 0 10.5 0ZM10.5 2C5.80558 2 2 5.80558 2 10.5C2 15.1944 5.80558 19 10.5 19C15.1944 19 19 15.1944 19 10.5C19 5.80558 15.1944 2 10.5 2Z" fill="white"/>
<path d="M10.5 8V13M13 10.5H8" stroke="white" stroke-width="2" stroke-linecap="round" stroke-linejoin="round"/>
</svg>
