<?xml version="1.0" encoding="utf-8"?><svg xmlns="http://www.w3.org/2000/svg" xmlns:xlink="http://www.w3.org/1999/xlink"><symbol fill="none" viewBox="0 0 56 24" id="arrow" xmlns="http://www.w3.org/2000/svg"><path d="M0 12h32m0 0-6.871-7m6.87 7-6.87 7" stroke="#383838" stroke-width="2" stroke-linejoin="round"/></symbol><symbol fill="none" viewBox="0 0 24 24" id="chat" xmlns="http://www.w3.org/2000/svg"><mask id="ba" maskUnits="userSpaceOnUse" x="4" y="4" width="18" height="18" fill="#000"><path fill="#fff" d="M4 4h18v18H4z"/><path d="M12.5 5a7.5 7.5 0 0 1 6.538 11.174l.937 3.8-3.937-.86A7.5 7.5 0 1 1 12.5 5Z"/></mask><path d="M12.5 5a7.5 7.5 0 0 1 6.538 11.174l.937 3.8-3.937-.86A7.5 7.5 0 1 1 12.5 5Z" fill="#fff"/><path d="M12.5 5V4v1Zm7.501 7.5h1-1Zm-.963 3.674-.871-.49a1 1 0 0 0-.1.73l.971-.24Zm.937 3.8-.214.977a1 1 0 0 0 1.185-1.216l-.971.24Zm-3.937-.86.214-.977a1 1 0 0 0-.686.096l.472.881Zm-3.538.887v1-1ZM5 12.5H4h1ZM12.5 5v1a6.5 6.5 0 0 1 6.501 6.5h2A8.5 8.5 0 0 0 12.5 4v1Zm7.501 7.5h-1a6.465 6.465 0 0 1-.834 3.183l.871.49.871.492a8.464 8.464 0 0 0 1.092-4.165h-1Zm-.963 3.674-.97.24.936 3.8.97-.24.972-.239-.937-3.8-.97.239Zm.937 3.8.213-.976-3.936-.86-.214.976-.213.977 3.936.86.214-.976Zm-3.937-.86-.472-.881A6.467 6.467 0 0 1 12.5 19v2c1.45 0 2.815-.365 4.01-1.005l-.472-.882Zm-3.538.887v-1A6.5 6.5 0 0 1 6 12.5H4c0 4.694 3.805 8.5 8.5 8.501v-1ZM5 12.5h1A6.5 6.5 0 0 1 12.5 6V4A8.5 8.5 0 0 0 4 12.5h1Z" fill="#000" mask="url(#ba)"/><path d="M9.5 11h6m-6 3H14" stroke="#000" stroke-linecap="round"/></symbol><symbol fill="none" viewBox="0 0 210 24" id="logo" xmlns="http://www.w3.org/2000/svg"><path d="M175.688 4.354c7.657 0 10.94 2.207 10.94 7.323 0 5.115-3.283 7.322-10.94 7.322-7.64 0-10.942-2.207-10.942-7.322 0-5.116 3.302-7.323 10.942-7.323Zm-67.038.098c5.489 0 8.34.93 8.371.94v2.617c-.028-.003-3.589-.958-8.351-.958-3.831 0-7.335.117-7.335 4.63 0 4.198 2.973 4.608 7.377 4.608 4.864 0 8.278-.93 8.309-.94v2.617c-.028.009-3.082.939-8.371.943-5.725 0-10.574-1.115-10.574-7.228 0-6.113 4.849-7.229 10.574-7.229ZM11.062 15.916h.633l4.54-11.072h6.523v13.67h-3.264V7.442h-1.158l-4.544 11.072h-4.83L4.442 7.442H3.258v11.072H0V4.844h6.519l4.543 11.072Zm21.066 0h1.017l9.272-11.072h5.786v13.67h-3.259V7.438h-.877l-9.205 11.076H28.87V4.844h3.259v11.072Zm63.64 2.598h-3.52l-1.201-2.185H78.845l-1.2 2.185h-3.528l7.541-13.67h6.58l7.53 13.67Zm42.15-11.072h-7.066v11.072h-3.265V7.442h-7.066V4.844h17.397v2.598Zm56.007 8.474h1.022l9.266-11.072H210v13.67h-3.259V7.438h-.877l-9.206 11.076h-5.993V4.844h3.26v11.072ZM61.55 4.529c6.682 0 11.92 1.016 11.92 5.233 0 5.852-11.39 5.565-11.39 5.565-2.955.036-3.405 0-5.196-.058v3.24h-3.26V4.84c2.71-.175 5.417-.31 7.926-.31Zm88.223 0c6.683 0 11.921 1.016 11.921 5.233 0 5.832-11.31 5.567-11.39 5.565-2.955.036-3.405 0-5.197-.058v3.24h-3.258V4.84c2.71-.175 5.416-.31 7.924-.31Zm25.915 2.423c-5.525 0-7.682 1.33-7.682 4.729 0 3.398 2.157 4.724 7.682 4.724 5.519 0 7.68-1.326 7.68-4.724s-2.162-4.729-7.68-4.729ZM80.294 13.73h9.309l-3.466-6.288h-2.382l-3.461 6.288ZM62.2 7.127c-1.67 0-3.503.08-5.317.157v5.372c1.327.054 2.63.077 3.891.077 5.173 0 9.436-.566 9.436-2.949 0-2.149-3.508-2.657-8.01-2.657Zm88.224 0c-1.67 0-3.503.08-5.318.157v5.372c1.328.054 2.632.077 3.893.077 5.177 0 9.434-.567 9.435-2.949 0-2.149-3.508-2.657-8.01-2.657ZM203.58 1v1.457h-6.485V1h6.485Z" fill="#383838"/></symbol><symbol fill="none" viewBox="0 0 24 24" id="mail" xmlns="http://www.w3.org/2000/svg"><path d="M16.756 6.013A2.5 2.5 0 0 1 19 8.5v7a2.5 2.5 0 0 1-2.5 2.5H4.501a2.5 2.5 0 0 1-2.487-2.244L2 15.5v-7A2.5 2.5 0 0 1 4.5 6h12l.256.013Zm-5.368 6.414a1.5 1.5 0 0 1-1.775 0l-6.4-4.695A1.492 1.492 0 0 0 3 8.5v7l.008.154A1.5 1.5 0 0 0 4.5 17h12a1.5 1.5 0 0 0 1.5-1.5v-7c0-.28-.079-.543-.213-.768l-6.4 4.695ZM4.5 7c-.17 0-.333.029-.485.081l6.19 4.54a.5.5 0 0 0 .59 0l6.187-4.54a1.49 1.49 0 0 0-.33-.073L16.5 7H4.501Z" fill="#fff"/></symbol><symbol fill="none" viewBox="0 0 24 24" id="menu" xmlns="http://www.w3.org/2000/svg"><g clip-path="url(#ea)"><path d="M180 18H0v-1h180v1Zm0-5H0v-1h180v1Zm0-5H0V7h180v1Z" fill="#383838"/></g><defs><clipPath id="ea"><path fill="#fff" d="M0 0h24v24H0z"/></clipPath></defs></symbol><symbol fill="none" viewBox="0 0 24 24" id="phone" xmlns="http://www.w3.org/2000/svg"><path d="M7.124 5.5c.23 0 .47.002.685.013h.055c.028 0 .072 0 .12.003a1 1 0 0 1 .375.091c.293.139.5.416.662.804l.607 1.476.293.707.1.239.034.075.01.024.003.006.044.095a1.1 1.1 0 0 1-.014.955c-.104.207-.19.418-.412.677-.14.164-.372.461-.544.633a1.51 1.51 0 0 0-.08.083l.008.014c.193.332.853 1.405 1.817 2.265a8.268 8.268 0 0 0 2.255 1.454l.406.183.126.05c.005-.005.012-.01.02-.019.206-.236.843-.986 1.051-1.299l.066-.091c.16-.207.372-.356.648-.387.26-.03.506.061.648.113.189.069.72.321 1.212.559.508.245 1.02.497 1.195.585.143.071.323.155.443.22.106.058.26.15.375.303l.047.07.053.112c.042.114.055.232.061.31.01.13.009.283-.006.448-.028.334-.11.75-.267 1.193-.202.564-.737 1.026-1.223 1.337-.497.319-1.074.564-1.499.628-.635.095-1.47.14-2.395-.155a20.33 20.33 0 0 1-2.01-.744c-1.816-.784-3.298-2.08-4.34-3.191a18.575 18.575 0 0 1-1.7-2.104l-.033-.046-.01-.015-.004-.005a8.885 8.885 0 0 1-.814-1.306c-.346-.682-.692-1.597-.692-2.557 0-1.904 1.019-2.865 1.337-3.212A1.765 1.765 0 0 1 7.124 5.5Z" fill="#fff" stroke="#383838"/></symbol><symbol fill="none" viewBox="0 0 24 24" id="phone-white" xmlns="http://www.w3.org/2000/svg"><path d="M6.124 4.5c.23 0 .47.002.685.013h.055c.028 0 .072 0 .12.003a1 1 0 0 1 .375.091c.293.139.5.416.662.804l.607 1.476.293.707.1.239.034.075.01.024.003.006.044.095a1.1 1.1 0 0 1-.014.955c-.104.207-.19.418-.412.677-.14.164-.372.461-.544.633a1.51 1.51 0 0 0-.08.083l.008.014c.193.332.853 1.405 1.817 2.265a8.268 8.268 0 0 0 2.255 1.454l.406.183.126.05c.005-.005.012-.01.02-.019.206-.236.843-.986 1.051-1.299l.066-.091c.16-.207.372-.356.648-.387.26-.03.506.061.648.113.189.069.72.321 1.212.559.508.245 1.02.497 1.195.585.143.071.323.155.443.22.106.058.26.15.375.303l.047.07.053.112c.042.114.055.232.061.31.01.13.009.283-.006.448-.028.333-.11.75-.267 1.193-.202.564-.737 1.026-1.223 1.337-.497.319-1.074.564-1.499.628-.635.095-1.47.14-2.394-.155a20.33 20.33 0 0 1-2.011-.744c-1.816-.784-3.298-2.08-4.34-3.191a18.575 18.575 0 0 1-1.7-2.104l-.033-.046-.01-.015-.004-.005a8.885 8.885 0 0 1-.814-1.306c-.346-.682-.692-1.597-.692-2.557 0-1.904 1.019-2.865 1.337-3.212A1.765 1.765 0 0 1 6.124 4.5Z" stroke="#fff"/></symbol><symbol fill="none" viewBox="0 0 72 72" id="play" xmlns="http://www.w3.org/2000/svg"><circle cx="36" cy="36" r="33.5" fill="#383838" fill-opacity=".8" stroke="#FFE500" stroke-width="5"/><path d="M27.6 28.32c0-1.53 1.647-2.494 2.98-1.744l14.721 8.28c1.36.765 1.36 2.722 0 3.487l-14.72 8.28c-1.334.75-2.981-.213-2.981-1.743V28.32Z" fill="#fff"/></symbol><symbol fill="none" viewBox="0 0 24 24" id="tg" xmlns="http://www.w3.org/2000/svg"><path d="m18.952 6.274-2.566 11.88c-.193.84-.698 1.048-1.415.653l-3.91-2.828-1.885 1.78c-.209.206-.384.377-.786.377l.28-3.909 7.246-6.428c.315-.276-.069-.429-.49-.153L6.47 13.184l-3.856-1.185c-.839-.258-.854-.824.175-1.219L17.87 5.075c.698-.258 1.31.152 1.082 1.2Z" stroke="#fff"/></symbol></svg>