<?xml version="1.0" encoding="utf-8"?><svg xmlns="http://www.w3.org/2000/svg" xmlns:xlink="http://www.w3.org/1999/xlink"><symbol fill="none" viewBox="0 0 12 22" id="arr-yellow" xmlns="http://www.w3.org/2000/svg"><path d="M11 1 1 11l10 10" stroke="#FFE500" stroke-width="2" stroke-linejoin="round"/></symbol><symbol fill="none" viewBox="0 0 56 24" id="arrow" xmlns="http://www.w3.org/2000/svg"><path d="M0 12h32m0 0-6.871-7m6.87 7-6.87 7" stroke="#383838" stroke-width="2" stroke-linejoin="round"/></symbol><symbol fill="none" viewBox="0 0 32 32" id="chat" xmlns="http://www.w3.org/2000/svg"><path d="M16.05 4a11.902 11.902 0 0 1 8.453 3.487A11.794 11.794 0 0 1 28 15.901c-.003 6.558-5.364 11.893-11.95 11.893h-.005c-2 0-3.965-.5-5.71-1.447l-4.658 1.215A1 1 0 0 1 4.46 26.33l1.235-4.492a11.827 11.827 0 0 1-1.594-5.945C4.103 9.335 9.463 4 16.05 4Zm0 1C10.01 5 5.103 9.892 5.1 15.893c0 1.92.503 3.792 1.46 5.443a1 1 0 0 1 .1.767l-1.236 4.492 4.658-1.216.093-.02a.999.999 0 0 1 .636.109c1.6.867 3.4 1.325 5.235 1.326h.004c6.038 0 10.947-4.892 10.95-10.893a10.794 10.794 0 0 0-3.202-7.705 10.89 10.89 0 0 0-7.2-3.182L16.05 5Zm-2.814 5.01h.011a1.4 1.4 0 0 1 .645.129c.424.196.669.567.825.934.114.268.308.732.478 1.137l.229.54.098.227.051.109a1.45 1.45 0 0 1-.028 1.265h-.001c-.05.098-.121.26-.254.45l-.154.196c-.033.037-.1.117-.178.208.234.34.601.818 1.063 1.222.68.594 1.238.854 1.628 1.023.042-.049.088-.099.132-.151a7.95 7.95 0 0 0 .376-.472l.081-.11a1.35 1.35 0 0 1 .913-.52c.363-.04.683.085.778.118.183.066.638.278 1.008.453l.945.454.369.18c.092.049.313.17.49.4l.073.105.05.093c.105.217.123.43.13.506.01.143.007.296-.007.45-.02.232-.067.5-.15.785l-.095.29c-.232.637-.804 1.084-1.21 1.34-.434.271-.967.503-1.41.568-.549.08-1.304.122-2.147-.14-.408-.127-.947-.3-1.636-.592-1.531-.647-2.762-1.708-3.611-2.595a14.992 14.992 0 0 1-1.307-1.566l-.086-.12a3.658 3.658 0 0 0-.025-.034c-.078-.103-.396-.517-.696-1.095-.292-.564-.614-1.372-.614-2.254 0-1.73.966-2.627 1.217-2.895l.181-.172a1.99 1.99 0 0 1 1.27-.476l.568.01Zm-.567.99c-.18 0-.474.067-.722.332S11 12.239 11 13.543c0 1.304.97 2.564 1.105 2.741.137.18 1.91 2.855 4.623 4.002.646.273 1.15.436 1.543.558.649.201 1.238.173 1.705.105.52-.076 1.6-.64 1.827-1.26.225-.619.226-1.15.158-1.26-.068-.11-.248-.177-.519-.31-.27-.133-1.6-.773-1.85-.862-.247-.089-.428-.133-.609.133-.18.265-.698.862-.856 1.039-.158.177-.316.199-.587.066-.27-.133-1.142-.413-2.176-1.315-.804-.703-1.348-1.57-1.506-1.836-.157-.265-.017-.41.119-.541.121-.119.27-.31.406-.464.135-.155.18-.266.27-.443.09-.176.046-.332-.022-.464-.069-.135-.609-1.438-.834-1.968-.22-.517-.443-.446-.61-.454-.157-.008-.338-.01-.518-.01Z" fill="#000" opacity=".8"/></symbol><symbol fill="none" viewBox="0 0 24 24" id="check" xmlns="http://www.w3.org/2000/svg"><path d="M6 11.286 10.8 17 18 9" stroke="#383838" stroke-width="3" stroke-linejoin="round"/></symbol><symbol fill="none" viewBox="0 0 24 24" id="close" xmlns="http://www.w3.org/2000/svg"><path d="M12 7 2 17m10 0L2 7" stroke="#383838" stroke-linejoin="round"/></symbol><symbol fill="none" viewBox="0 0 16 16" id="close-black" xmlns="http://www.w3.org/2000/svg"><path d="M15 1 1 15m14 0L1 1" stroke="#383838" stroke-linejoin="round"/></symbol><symbol fill="none" viewBox="0 0 30 30" id="drop" xmlns="http://www.w3.org/2000/svg"><path d="m6 11 9 8 9-8" stroke="#383838" stroke-width="3" stroke-linejoin="round"/></symbol><symbol fill="none" viewBox="0 0 24 24" id="geo" xmlns="http://www.w3.org/2000/svg"><path d="M11.5 3C15.09 3 18 6.003 18 9.708l-.012.39c-.25 4.031-4.287 8.176-5.864 9.65a.907.907 0 0 1-1.248 0c-1.577-1.474-5.612-5.619-5.863-9.65L5 9.708C5 6.004 7.91 3 11.5 3Zm0 1C8.492 4 6 6.526 6 9.708c0 1.764.918 3.683 2.146 5.43 1.18 1.68 2.555 3.07 3.354 3.822.799-.751 2.174-2.142 3.354-3.821C16.084 13.39 17 11.47 17 9.708 17 6.526 14.508 4 11.5 4Zm0 2.644c1.675 0 3.033 1.427 3.033 3.188l-.004.164c-.081 1.684-1.406 3.024-3.029 3.024l-.156-.004c-1.551-.083-2.795-1.39-2.873-3.02l-.004-.164c0-1.76 1.358-3.188 3.033-3.188Zm0 1c-1.077 0-2.033.932-2.033 2.188 0 1.256.957 2.188 2.033 2.188 1.077 0 2.033-.932 2.033-2.188 0-1.256-.956-2.188-2.033-2.188Z" fill="#383838"/></symbol><symbol fill="none" viewBox="0 0 24 24" id="info" xmlns="http://www.w3.org/2000/svg"><circle cx="12" cy="12" r="8.5" stroke="#383838"/><path d="M12 11.536c.552 0 1 .431 1 .964v3.536c0 .532-.448.964-1 .964s-1-.431-1-.964V12.5c0-.533.448-.964 1-.964ZM12 7.7a1.3 1.3 0 1 1 0 2.6 1.3 1.3 0 0 1 0-2.6Z" fill="#383838"/></symbol><symbol fill="none" viewBox="0 0 210 24" id="logo" xmlns="http://www.w3.org/2000/svg"><path d="M175.688 4.354c7.657 0 10.94 2.207 10.94 7.323 0 5.115-3.283 7.322-10.94 7.322-7.64 0-10.942-2.207-10.942-7.322 0-5.116 3.302-7.323 10.942-7.323Zm-67.038.098c5.489 0 8.34.93 8.371.94v2.617c-.028-.003-3.589-.958-8.351-.958-3.831 0-7.335.117-7.335 4.63 0 4.198 2.973 4.608 7.377 4.608 4.864 0 8.278-.93 8.309-.94v2.617c-.028.009-3.082.939-8.371.943-5.725 0-10.574-1.115-10.574-7.228 0-6.113 4.849-7.229 10.574-7.229ZM11.062 15.916h.633l4.54-11.072h6.523v13.67h-3.264V7.442h-1.158l-4.544 11.072h-4.83L4.442 7.442H3.258v11.072H0V4.844h6.519l4.543 11.072Zm21.066 0h1.017l9.272-11.072h5.786v13.67h-3.259V7.438h-.877l-9.205 11.076H28.87V4.844h3.259v11.072Zm63.64 2.598h-3.52l-1.201-2.185H78.845l-1.2 2.185h-3.528l7.541-13.67h6.58l7.53 13.67Zm42.15-11.072h-7.066v11.072h-3.265V7.442h-7.066V4.844h17.397v2.598Zm56.007 8.474h1.022l9.266-11.072H210v13.67h-3.259V7.438h-.877l-9.206 11.076h-5.993V4.844h3.26v11.072ZM61.55 4.529c6.682 0 11.92 1.016 11.92 5.233 0 5.852-11.39 5.565-11.39 5.565-2.955.036-3.405 0-5.196-.058v3.24h-3.26V4.84c2.71-.175 5.417-.31 7.926-.31Zm88.223 0c6.683 0 11.921 1.016 11.921 5.233 0 5.832-11.31 5.567-11.39 5.565-2.955.036-3.405 0-5.197-.058v3.24h-3.258V4.84c2.71-.175 5.416-.31 7.924-.31Zm25.915 2.423c-5.525 0-7.682 1.33-7.682 4.729 0 3.398 2.157 4.724 7.682 4.724 5.519 0 7.68-1.326 7.68-4.724s-2.162-4.729-7.68-4.729ZM80.294 13.73h9.309l-3.466-6.288h-2.382l-3.461 6.288ZM62.2 7.127c-1.67 0-3.503.08-5.317.157v5.372c1.327.054 2.63.077 3.891.077 5.173 0 9.436-.566 9.436-2.949 0-2.149-3.508-2.657-8.01-2.657Zm88.224 0c-1.67 0-3.503.08-5.318.157v5.372c1.328.054 2.632.077 3.893.077 5.177 0 9.434-.567 9.435-2.949 0-2.149-3.508-2.657-8.01-2.657ZM203.58 1v1.457h-6.485V1h6.485Z" fill="#383838"/></symbol><symbol fill="none" viewBox="0 0 360 50" id="logo-footer" xmlns="http://www.w3.org/2000/svg"><path d="M158.951 47.001h1.29v3h-1.163v-1.91h-7.208l-.013 1.91h-1.163l.013-3h.426c1.201-.076 1.487-2.187 1.576-4.844l.09-2.81h6.152v7.654Zm-47.519-7.75c2.669 0 4.646 1.896 4.646 4.47 0 2.575-1.983 4.471-4.646 4.471-2.695 0-4.672-1.909-4.672-4.47 0-2.562 1.983-4.471 4.672-4.471ZM80 39.246c1.354 0 2.53.463 3.331 1.363l-.814.786c-.674-.71-1.5-1.033-2.466-1.033-1.977 0-3.445 1.408-3.445 3.348s1.468 3.361 3.445 3.361c.966 0 1.792-.336 2.466-1.047l.814.788c-.8.9-1.977 1.376-3.344 1.376-2.656 0-4.633-1.884-4.633-4.471s1.983-4.47 4.646-4.47Zm139.107 0c1.353 0 2.53.463 3.331 1.363l-.814.786c-.674-.71-1.501-1.033-2.467-1.033-1.983 0-3.444 1.408-3.444 3.348s1.468 3.361 3.444 3.361c.966 0 1.793-.336 2.467-1.047l.814.788c-.801.9-1.978 1.376-3.344 1.376-2.657 0-4.634-1.884-4.634-4.471s1.983-4.47 4.647-4.47Zm-47.964 8.839h-1.227v-7.653h-3.884l-.089 2.561c-.114 3.468-.648 5.193-2.377 5.194-.247 0-.49-.026-.789-.102l.09-1.11c.153.039.261.051.401.051 1.086 0 1.461-1.287 1.563-3.995l.14-3.69h6.172v8.744Zm-78.15-7.647h-3v7.654h-1.227v-7.654H85.77v-1.09h7.221v1.09Zm6.96-1.09c2.281 0 3.654 1.154 3.654 3.05 0 1.902-1.379 3.05-3.655 3.05h-2.167v2.644h-1.252v-8.744h3.42Zm21.407 6.747 5.187-6.747h1.15v8.744h-1.226v-6.735l-5.194 6.735h-1.156v-8.744h1.239v6.747Zm15.764-.603 3.604-6.144h1.03l.013 8.744h-1.203l-.012-6.366-3.165 5.307h-.578l-3.166-5.276v6.335h-1.202v-8.744h1.024l3.655 6.144Zm45.18 2.6h-1.227v-2.549h-2.415c-.108 0-.222 0-.337-.013l-1.755 2.562h-1.328l1.939-2.77c-1.24-.413-1.939-1.409-1.939-2.823 0-1.997 1.392-3.151 3.547-3.151h3.515v8.744Zm13.888-8.744c1.907 0 3.058.792 3.058 2.25 0 .958-.515 1.637-1.367 1.96 1.176.292 1.805 1.015 1.799 2.15 0 1.496-1.1 2.384-3.254 2.384h-4.005v-8.744h3.769Zm15.585 8.744h-1.315l-.966-2.188h-4.659l-.967 2.188h-1.29l3.967-8.744h1.252l3.978 8.744Zm-18.108-.983h2.739c1.316 0 2.015-.476 2.015-1.497 0-1.014-.699-1.465-2.015-1.465h-2.739v2.962Zm-82.237-6.755c-1.971 0-3.42 1.42-3.42 3.36 0 1.941 1.456 3.362 3.42 3.362 1.945 0 3.394-1.42 3.394-3.361 0-1.94-1.456-3.36-3.394-3.36Zm42.377 1.923c-.07 2.13-.286 4.059-1.036 4.73h4.939v-6.569h-3.839l-.064 1.84Zm51.46 2.632h3.776l-1.888-4.287-1.888 4.287Zm-26.429-4.47c-1.487 0-2.326.697-2.326 2.047 0 1.288.762 2.011 2.25 2.011h2.313v-4.059h-2.237Zm-81.055 3.918h2.13c1.601 0 2.441-.71 2.441-1.96-.001-1.249-.84-1.959-2.442-1.959h-2.129v3.92Zm95.884-1.16h2.44c1.202 0 1.875-.482 1.875-1.42 0-.94-.673-1.44-1.875-1.44h-2.44v2.86ZM313.491 5.371c10.38 0 14.829 3.114 14.829 10.33s-4.449 10.33-14.829 10.33c-10.354 0-14.829-3.114-14.829-10.33s4.475-10.33 14.829-10.33Zm-90.863.142c7.434 0 11.297 1.308 11.345 1.325v3.69c-.062-.01-4.88-1.35-11.32-1.35-5.193 0-9.941.165-9.941 6.531 0 5.923 4.03 6.5 9.999 6.5 6.585 0 11.209-1.31 11.262-1.325v3.69c-.047.015-4.185 1.326-11.345 1.332-7.761 0-14.333-1.573-14.333-10.197 0-8.624 6.572-10.196 14.333-10.196ZM90.354 21.68h.859l6.152-15.618h8.842v19.284h-4.424V9.726h-1.57l-6.16 15.62h-6.546L81.38 9.726h-1.602v15.62H75.36V6.062h8.835l6.16 15.618Zm28.553 0h1.379l12.566-15.618h7.844v19.283h-4.418V9.72h-1.188l-12.478 15.624h-8.123V6.062h4.418V21.68Zm86.261 3.665h-4.774l-1.627-3.081h-16.539l-1.628 3.08h-4.779l10.221-19.282h8.918l10.208 19.283Zm57.13-15.618h-9.58v15.618h-4.423V9.727h-9.579V6.062h23.582v3.665Zm75.913 11.953h1.385l12.56-15.618H360v19.283h-4.417V9.72h-1.19l-12.476 15.624h-8.124V6.062h4.418V21.68ZM158.786 5.618c9.057 0 16.158 1.433 16.158 7.381 0 8.237-15.368 7.852-15.439 7.85-4.005.051-4.615.001-7.043-.081v4.57h-4.418V6.057c3.673-.248 7.341-.438 10.742-.438Zm119.58 0c9.057 0 16.158 1.433 16.158 7.381 0 8.233-15.352 7.853-15.439 7.85-4.005.051-4.615.001-7.043-.081v4.57h-4.418V6.057c3.674-.248 7.341-.438 10.742-.438Zm35.125 3.418c-7.488 0-10.411 1.877-10.411 6.671 0 4.794 2.923 6.665 10.411 6.665 7.481 0 10.411-1.871 10.411-6.665 0-4.794-2.93-6.67-10.411-6.67Zm-129.299 9.562h12.617l-4.697-8.871h-3.229l-4.691 8.87ZM159.67 9.283c-2.263 0-4.749.114-7.208.222v7.578c1.798.076 3.565.107 5.275.107 7.011 0 12.789-.798 12.789-4.159 0-3.03-4.754-3.748-10.856-3.748Zm119.58 0c-2.263 0-4.748.114-7.208.222v7.578c1.798.076 3.565.107 5.275.107 7.017 0 12.789-.798 12.789-4.159 0-3.03-4.754-3.748-10.856-3.748ZM351.298.642v2.054h-8.79V.642h8.79Z" fill="#fff"/><path d="M61.948 46.601V6.088L55.255 9.6 5.479 35.669v10.932H1.61V33.513L61.934 1.788V0L0 32.536v15.651h61.948V46.6Zm-24.23-20.279v20.28h-3.833v-18.27l3-1.572.833-.438Zm-14.69 7.698 3.834-2.004v14.592h-3.833V34.02Zm-1.595 12.581h-3.832v-9.74l3.832-2.004v11.744Zm7.024-15.428 3.833-2.004v17.432h-3.833V31.173Zm-16.285 8.529 3.344-1.75.483-.254v8.903h-3.833v-6.899h.006Zm43.083 6.9H39.313V25.484l15.942-8.351V46.6Zm304.745 0H235.843v1.591H360v-1.591Z" fill="#FFE500"/></symbol><symbol fill="none" viewBox="0 0 24 24" id="mail" xmlns="http://www.w3.org/2000/svg"><path d="M16.756 6.013A2.5 2.5 0 0 1 19 8.5v7a2.5 2.5 0 0 1-2.5 2.5H4.501a2.5 2.5 0 0 1-2.487-2.244L2 15.5v-7A2.5 2.5 0 0 1 4.5 6h12l.256.013Zm-5.368 6.414a1.5 1.5 0 0 1-1.775 0l-6.4-4.695A1.492 1.492 0 0 0 3 8.5v7l.008.154A1.5 1.5 0 0 0 4.5 17h12a1.5 1.5 0 0 0 1.5-1.5v-7c0-.28-.079-.543-.213-.768l-6.4 4.695ZM4.5 7c-.17 0-.333.029-.485.081l6.19 4.54a.5.5 0 0 0 .59 0l6.187-4.54a1.49 1.49 0 0 0-.33-.073L16.5 7H4.501Z" fill="#fff"/></symbol><symbol fill="none" viewBox="0 0 24 24" id="mail-black" xmlns="http://www.w3.org/2000/svg"><path d="M16.756 6.013A2.5 2.5 0 0 1 19 8.5v7a2.5 2.5 0 0 1-2.5 2.5H4.501a2.5 2.5 0 0 1-2.487-2.244L2 15.5v-7A2.5 2.5 0 0 1 4.5 6h12l.256.013Zm-5.368 6.414a1.5 1.5 0 0 1-1.775 0l-6.4-4.695A1.492 1.492 0 0 0 3 8.5v7l.008.154A1.5 1.5 0 0 0 4.5 17h12a1.5 1.5 0 0 0 1.5-1.5v-7c0-.28-.079-.543-.213-.768l-6.4 4.695ZM4.5 7c-.17 0-.333.029-.485.081l6.19 4.54a.5.5 0 0 0 .59 0l6.187-4.54a1.49 1.49 0 0 0-.33-.073L16.5 7H4.501Z" fill="#383838"/></symbol><symbol fill="none" viewBox="0 0 24 24" id="menu" xmlns="http://www.w3.org/2000/svg"><g clip-path="url(#na)"><path d="M180 18H0v-1h180v1Zm0-5H0v-1h180v1Zm0-5H0V7h180v1Z" fill="#383838"/></g><defs><clipPath id="na"><path fill="#fff" d="M0 0h24v24H0z"/></clipPath></defs></symbol><symbol fill="none" viewBox="0 0 24 24" id="phone" xmlns="http://www.w3.org/2000/svg"><path d="M6.124 4.5c.23 0 .47.002.685.013h.055c.028 0 .072 0 .12.003a1 1 0 0 1 .375.091c.293.139.5.416.662.804l.607 1.476.293.707.1.239.034.075.01.024.003.006.044.095a1.1 1.1 0 0 1-.014.955c-.104.207-.19.418-.412.677-.14.164-.372.461-.544.633a1.51 1.51 0 0 0-.08.083l.008.014c.193.332.853 1.405 1.817 2.265a8.268 8.268 0 0 0 2.255 1.454l.406.183.126.05c.005-.005.012-.01.02-.019.206-.236.843-.986 1.051-1.299l.066-.091c.16-.207.372-.356.648-.387.26-.03.506.061.648.113.189.069.72.321 1.212.559.508.245 1.02.497 1.195.585.143.071.323.155.443.22.106.058.26.15.375.303l.047.07.053.112c.042.114.055.232.061.31.01.13.009.283-.006.448-.028.333-.11.75-.267 1.193-.202.564-.737 1.026-1.223 1.337-.497.319-1.074.564-1.499.628-.635.095-1.47.14-2.394-.155a20.33 20.33 0 0 1-2.011-.744c-1.816-.784-3.298-2.08-4.34-3.191a18.575 18.575 0 0 1-1.7-2.104l-.033-.046-.01-.015-.004-.005a8.885 8.885 0 0 1-.814-1.306c-.346-.682-.692-1.597-.692-2.557 0-1.904 1.019-2.865 1.337-3.212A1.765 1.765 0 0 1 6.124 4.5Z" stroke="#383838"/></symbol><symbol fill="none" viewBox="0 0 24 24" id="phone-white" xmlns="http://www.w3.org/2000/svg"><path d="M6.124 4.5c.23 0 .47.002.685.013h.055c.028 0 .072 0 .12.003a1 1 0 0 1 .375.091c.293.139.5.416.662.804l.607 1.476.293.707.1.239.034.075.01.024.003.006.044.095a1.1 1.1 0 0 1-.014.955c-.104.207-.19.418-.412.677-.14.164-.372.461-.544.633a1.51 1.51 0 0 0-.08.083l.008.014c.193.332.853 1.405 1.817 2.265a8.268 8.268 0 0 0 2.255 1.454l.406.183.126.05c.005-.005.012-.01.02-.019.206-.236.843-.986 1.051-1.299l.066-.091c.16-.207.372-.356.648-.387.26-.03.506.061.648.113.189.069.72.321 1.212.559.508.245 1.02.497 1.195.585.143.071.323.155.443.22.106.058.26.15.375.303l.047.07.053.112c.042.114.055.232.061.31.01.13.009.283-.006.448-.028.333-.11.75-.267 1.193-.202.564-.737 1.026-1.223 1.337-.497.319-1.074.564-1.499.628-.635.095-1.47.14-2.394-.155a20.33 20.33 0 0 1-2.011-.744c-1.816-.784-3.298-2.08-4.34-3.191a18.575 18.575 0 0 1-1.7-2.104l-.033-.046-.01-.015-.004-.005a8.885 8.885 0 0 1-.814-1.306c-.346-.682-.692-1.597-.692-2.557 0-1.904 1.019-2.865 1.337-3.212A1.765 1.765 0 0 1 6.124 4.5Z" stroke="#fff"/></symbol><symbol fill="none" viewBox="0 0 72 72" id="play" xmlns="http://www.w3.org/2000/svg"><circle cx="36" cy="36" r="33.5" fill="#383838" fill-opacity=".8" stroke="#FFE500" stroke-width="5"/><path d="M27.6 28.32c0-1.53 1.647-2.494 2.98-1.744l14.721 8.28c1.36.765 1.36 2.722 0 3.487l-14.72 8.28c-1.334.75-2.981-.213-2.981-1.743V28.32Z" fill="#fff"/></symbol><symbol fill="none" viewBox="0 0 24 20" id="social-tg" xmlns="http://www.w3.org/2000/svg"><path d="M23.932 1.82 20.31 18.794c-.273 1.198-.986 1.496-1.999.931l-5.518-4.04-2.663 2.544c-.294.293-.54.538-1.109.538l.397-5.584 10.227-9.184c.445-.394-.096-.612-.69-.218L6.31 11.69.867 9.999c-1.184-.367-1.205-1.177.246-1.74L22.405.106c.985-.368 1.848.218 1.527 1.714Z" fill="#fff"/></symbol><symbol fill="none" viewBox="0 0 24 14" id="social-vk" xmlns="http://www.w3.org/2000/svg"><path fill-rule="evenodd" clip-rule="evenodd" d="M23.435.972c.178-.548 0-.947-.787-.947h-2.619c-.66 0-.965.35-1.143.723 0 0-1.348 3.189-3.228 5.256-.61.598-.89.797-1.22.797-.179 0-.408-.2-.408-.747V.946C14.03.3 13.829 0 13.268 0H9.15c-.407 0-.661.299-.661.598 0 .623.94.772 1.042 2.516v3.789c0 .822-.15.972-.483.972-.89 0-3.05-3.214-4.346-6.876C4.45.274 4.194 0 3.533 0H.89C.127 0 0 .349 0 .722c0 .673.89 4.06 4.143 8.545 2.16 3.062 5.236 4.708 8.006 4.708 1.679 0 1.882-.374 1.882-.996v-2.317c0-.747.152-.872.686-.872.381 0 1.067.2 2.618 1.67C19.114 13.202 19.419 14 20.41 14h2.619c.762 0 1.118-.374.915-1.096-.229-.723-1.093-1.769-2.212-3.014-.61-.697-1.525-1.47-1.805-1.843-.38-.499-.279-.698 0-1.146-.025 0 3.178-4.434 3.508-5.93" fill="#fff"/></symbol><symbol fill="none" viewBox="0 0 24 24" id="social-wapp" xmlns="http://www.w3.org/2000/svg"><path fill-rule="evenodd" clip-rule="evenodd" d="M17.302 14.331c-.293-.146-1.733-.851-2.002-.948-.268-.098-.464-.146-.659.146-.195.291-.757.948-.928 1.143-.17.194-.341.219-.634.072-.293-.145-1.237-.453-2.356-1.446-.87-.773-1.458-1.728-1.63-2.02-.17-.292-.018-.45.13-.595.13-.13.292-.34.438-.51.147-.17.196-.293.293-.487.098-.195.05-.365-.024-.51-.073-.147-.66-1.582-.903-2.165-.238-.569-.48-.492-.66-.5a9.96 9.96 0 0 0-.56-.011 1.08 1.08 0 0 0-.782.365C6.757 7.157 6 7.862 6 9.297s1.05 2.82 1.196 3.015c.147.195 2.066 3.14 5.004 4.402.699.3 1.245.48 1.67.614.702.223 1.34.191 1.845.116.563-.084 1.733-.705 1.977-1.386.244-.681.244-1.265.171-1.386-.073-.122-.268-.195-.561-.34Z" fill="#fff"/><path fill-rule="evenodd" clip-rule="evenodd" d="M12.05 21.785h-.004a9.953 9.953 0 0 1-5.055-1.378l-.363-.214-3.759.982 1.003-3.648-.236-.374a9.826 9.826 0 0 1-1.518-5.26c.002-5.45 4.458-9.884 9.936-9.884a9.889 9.889 0 0 1 7.022 2.898 9.802 9.802 0 0 1 2.906 6.993c-.002 5.45-4.457 9.885-9.932 9.885Zm8.453-18.297A11.901 11.901 0 0 0 12.05 0C5.463 0 .103 5.335.1 11.892c0 2.096.55 4.142 1.595 5.945L0 24l6.335-1.654a11.985 11.985 0 0 0 5.71 1.448h.005c6.586 0 11.947-5.335 11.95-11.893a11.793 11.793 0 0 0-3.497-8.413Z" fill="#fff"/></symbol><symbol fill="none" viewBox="0 0 24 24" id="tg" xmlns="http://www.w3.org/2000/svg"><path d="m18.952 6.274-2.566 11.88c-.193.84-.698 1.048-1.415.653l-3.91-2.828-1.885 1.78c-.209.206-.384.377-.786.377l.28-3.909 7.246-6.428c.315-.276-.069-.429-.49-.153L6.47 13.184l-3.856-1.185c-.839-.258-.854-.824.175-1.219L17.87 5.075c.698-.258 1.31.152 1.082 1.2Z" stroke="#fff"/></symbol><symbol fill="none" viewBox="0 0 24 24" id="tg-black" xmlns="http://www.w3.org/2000/svg"><path d="m18.952 6.274-2.566 11.88c-.193.84-.698 1.048-1.415.653l-3.91-2.828-1.885 1.78c-.209.206-.384.377-.786.377l.28-3.909 7.246-6.428c.315-.276-.069-.429-.49-.153L6.47 13.184l-3.856-1.185c-.839-.258-.854-.824.175-1.219L17.87 5.075c.698-.258 1.31.152 1.082 1.2Z" stroke="#383838"/></symbol><symbol fill="none" viewBox="0 0 30 30" id="whatsapp" xmlns="http://www.w3.org/2000/svg"><path d="M15.037 7a8.928 8.928 0 0 1 6.34 2.616A8.844 8.844 0 0 1 24 15.926c-.002 4.917-4.023 8.92-8.962 8.92h-.004a8.99 8.99 0 0 1-4.283-1.086L6 25l1.271-4.622a8.87 8.87 0 0 1-1.196-4.46C6.077 11.002 10.097 7 15.037 7Zm.004 1.507c-4.109 0-7.451 3.325-7.453 7.412 0 1.4.394 2.766 1.14 3.946l.176.28-.753 2.736 2.82-.736.272.16a7.465 7.465 0 0 0 3.791 1.034h.004c4.105 0 7.446-3.326 7.448-7.413a7.348 7.348 0 0 0-2.18-5.245 7.416 7.416 0 0 0-5.265-2.174Zm-2.766 3.376c.135.007.317-.051.495.375.183.437.621 1.511.677 1.623.055.11.092.238.019.384-.073.145-.11.236-.22.364-.11.127-.23.285-.329.383-.11.109-.225.227-.097.446s.57.935 1.222 1.515c.84.745 1.548.976 1.768 1.086.219.109.347.09.475-.055.128-.146.549-.639.695-.858.147-.218.293-.182.495-.109.201.073 1.282.602 1.502.711.22.11.366.165.42.256.055.092.055.529-.127 1.039-.184.51-1.062.977-1.484 1.04-.378.056-.858.08-1.384-.087-.319-.1-.728-.235-1.252-.46-2.202-.946-3.641-3.153-3.752-3.302-.11-.146-.898-1.185-.898-2.261s.567-1.606.769-1.825a.81.81 0 0 1 .585-.273c.147 0 .294.002.421.008Z" fill="#fff"/></symbol><symbol fill="none" viewBox="0 0 24 24" id="zoom" xmlns="http://www.w3.org/2000/svg"><path d="M10.5 0C16.299 0 21 4.701 21 10.5a10.45 10.45 0 0 1-1.958 6.102l4.521 3.263c.483.393.58 1.137.218 1.66-.362.524-1.048.63-1.531.238l-4.757-3.434A10.458 10.458 0 0 1 10.5 21C4.701 21 0 16.299 0 10.5S4.701 0 10.5 0Zm0 2a8.5 8.5 0 1 0 0 17 8.5 8.5 0 0 0 0-17Z" fill="#fff"/><path d="M10.5 8v5m2.5-2.5H8" stroke="#fff" stroke-width="2" stroke-linecap="round" stroke-linejoin="round"/></symbol></svg>