<svg width="1440" height="230" viewBox="0 0 1440 230" fill="none" xmlns="http://www.w3.org/2000/svg">
<path d="M15.3936 0V46.3132L23.707 68.5529H25.1055L33.4189 46.3132V0H39.5713L48.1133 22.851H49.5117L58.0537 0H64.2061V46.3132L72.5195 68.5529H73.918L82.2314 46.3132V0H88.3838L96.9268 22.851H98.3242L106.866 0H113.019V46.3132L121.333 68.5529H122.73L131.044 46.3132V0H137.196L145.739 22.851H147.137L155.679 0H161.832V46.3151L170.146 68.5529H171.543L179.856 46.3132V0H186.01L194.552 22.851H195.949L204.491 0H210.645V46.3132L218.958 68.5529H220.355L228.669 46.3132V0H234.822L243.364 22.851H244.762L253.304 0H259.457V46.3132L267.771 68.5529H269.168L277.482 46.3132V0H283.635L292.177 22.851H293.574L302.117 0H308.27V46.3132L316.583 68.5529H317.98L326.295 46.3132V0H332.447L340.989 22.851H342.388L350.93 0H357.082V46.3132L365.396 68.5529H366.794L375.107 46.3132V0H381.26L389.802 22.851H391.2L399.742 0H405.895V46.3132L414.208 68.5529H415.606L423.92 46.3132V0H430.072L438.615 22.851H440.013L448.555 0H454.708V46.3151L463.021 68.5529H464.419L472.732 46.3132V0H478.886L479.066 0.486088L487.428 22.851H488.825L497.367 0H503.52V46.3132L511.834 68.5529H513.231L521.545 46.3132V0H527.698L536.24 22.851H537.638L546.18 0H552.333V46.3132L560.646 68.5529H562.044L570.357 46.3132V0H576.511L585.053 22.851H586.45L594.992 0H601.146V46.3132L609.459 68.5529H610.856L619.171 46.3132V0H625.323L633.865 22.851H635.263L643.805 0H649.958V46.3132L658.271 68.5529H659.669L667.982 46.3132V0H674.136L682.678 22.851H684.075L692.437 0.486088L692.617 0H698.771V46.3132L707.084 68.5529H708.481L716.795 46.3132V0H722.948L731.49 22.851H732.888L741.43 0H747.583V46.3132L755.896 68.5529H757.294L765.608 46.3132V0H771.761L780.303 22.851H781.7L790.243 0H796.396V46.3132L804.709 68.5529H806.107L814.421 46.3132V0H820.573L829.115 22.851H830.514L839.056 0H845.208V46.2375L853.55 68.5529H854.947L863.262 46.3132V0H869.414L877.956 22.851H879.354L887.896 0H894.049V46.3132L902.362 68.5529H903.761L912.074 46.3132V0H918.227L926.769 22.851H928.167L936.709 0H942.861V46.3132L951.175 68.5529H952.573L960.887 46.3132V0H967.039L975.581 22.851H976.979L985.521 0H991.674V46.3132L999.988 68.5529H1001.39L1009.7 46.3132V0H1015.85L1024.39 22.851H1025.79L1034.33 0H1040.49V46.3132L1048.8 68.5529H1050.2L1058.51 46.3132V0H1064.67L1064.85 0.486088L1073.21 22.851H1074.6L1083.15 0H1089.3V46.3132L1097.61 68.5529H1099.01L1107.32 46.3132V0H1113.48L1113.66 0.486088L1122.02 22.851H1123.42L1131.96 0H1138.11V46.3132L1146.43 68.5529H1147.82L1156.14 46.3132V0H1162.29L1170.83 22.851H1172.23L1180.77 0H1186.92V46.3132L1195.24 68.5529H1196.64L1204.95 46.3132V0H1211.1L1219.64 22.851H1221.04L1229.4 0.486088L1229.58 0H1235.74V46.3132L1244.05 68.5529H1245.45L1253.76 46.3132V0H1259.92L1268.46 22.851H1269.85L1278.4 0H1284.55V46.3132L1292.86 68.5529H1294.26L1302.58 46.3132V0H1308.73L1317.27 22.851H1318.67L1327.21 0H1333.36V46.3132L1341.68 68.5529H1343.07L1351.39 46.3132V0H1357.54L1366.08 22.851H1367.48L1376.02 0H1382.17V46.3132L1390.49 68.5529H1391.89L1400.2 46.3132V0H1406.35L1414.89 22.851H1416.29L1424.83 0H1430.99V46.3132L1439.3 68.5529H1440V70.0432H1439.3L1430.99 92.282V137.717L1439.3 159.957H1440V161.447H1439.3L1430.99 183.686V230H1424.83L1416.29 207.149H1414.89L1406.35 230H1400.2V183.686L1391.89 161.447H1390.49L1382.17 183.686V230H1376.02L1367.48 207.149H1366.08L1357.54 230H1351.39V183.686L1343.07 161.447H1341.68L1333.36 183.686V230H1327.21L1318.67 207.149H1317.27L1308.73 230H1302.58V183.686L1294.26 161.447H1292.86L1284.55 183.686V230H1278.4L1269.85 207.149H1268.46L1259.92 230H1253.76V183.686L1245.45 161.447H1244.05L1235.74 183.686V230H1229.58L1229.4 229.514L1221.04 207.149H1219.64L1211.1 230H1204.95V183.686L1196.64 161.447H1195.24L1186.92 183.686V230H1180.77L1172.23 207.149H1170.83L1162.29 230H1156.14V183.686L1147.82 161.447H1146.43L1138.11 183.686V230H1131.96L1123.42 207.149H1122.02L1113.66 229.514L1113.48 230H1107.32V183.686L1099.01 161.447H1097.61L1089.3 183.686V230H1083.15L1074.6 207.149H1073.21L1064.85 229.514L1064.67 230H1058.51V183.686L1050.2 161.447H1048.8L1040.49 183.686V230H1034.33L1025.79 207.149H1024.39L1015.85 230H1009.7V183.686L1001.39 161.447H999.988L991.674 183.686V230H985.521L976.979 207.149H975.581L967.039 230H960.887V183.686L952.573 161.447H951.175L942.861 183.686V230H936.709L928.167 207.149H926.769L918.227 230H912.074V183.686L903.761 161.447H902.362L894.049 183.686V230H887.896L879.354 207.149H877.956L869.414 230H863.262V183.686L854.947 161.447H853.55L845.208 183.762V230H839.056L830.514 207.149H829.115L820.573 230H814.421V183.686L806.107 161.447H804.709L796.396 183.686V230H790.243L781.7 207.149H780.303L771.761 230H765.608V183.686L757.294 161.447H755.896L747.583 183.686V230H741.43L732.888 207.149H731.49L722.948 230H716.795V183.686L708.481 161.447H707.084L698.771 183.686V230H692.617L692.437 229.514L684.075 207.149H682.678L674.136 230H667.982V183.686L659.669 161.447H658.271L649.958 183.686V230H643.805L635.263 207.149H633.865L625.323 230H619.171V183.686L610.856 161.447H609.459L601.146 183.686V230H594.992L586.45 207.149H585.053L576.511 230H570.357V183.686L562.044 161.447H560.646L552.333 183.686V230H546.18L537.638 207.149H536.24L527.698 230H521.545V183.686L513.231 161.447H511.834L503.52 183.686V230H497.367L488.825 207.149H487.428L479.066 229.514L478.886 230H472.732V183.686L464.419 161.447H463.021L454.708 183.684V230H448.555L440.013 207.149H438.615L430.072 230H423.92V183.686L415.606 161.447H414.208L405.895 183.686V230H399.742L391.2 207.149H389.802L381.26 230H375.107V183.686L366.794 161.447H365.396L357.082 183.686V230H350.93L342.388 207.149H340.989L332.447 230H326.295V183.686L317.98 161.447H316.583L308.27 183.686V230H302.117L293.574 207.149H292.177L283.635 230H277.482V183.686L269.168 161.447H267.771L259.457 183.686V230H253.304L244.762 207.149H243.364L234.822 230H228.669V183.686L220.355 161.447H218.958L210.645 183.686V230H204.491L195.949 207.149H194.552L186.01 230H179.856V183.686L171.543 161.447H170.146L161.832 183.684V230H155.679L147.137 207.149H145.739L137.196 230H131.044V183.686L122.73 161.447H121.333L113.019 183.686V230H106.866L98.3242 207.149H96.9268L88.3838 230H82.2314V183.686L73.918 161.447H72.5195L64.2061 183.686V230H58.0537L49.5117 207.149H48.1133L39.5713 230H33.4189V183.686L25.1055 161.447H23.707L15.3936 183.686V230H9.24121L0.699219 207.149H0V205.659H0.699219L9.0127 183.419V137.984L0.699219 115.745H0V114.255H0.699219L9.0127 92.0151V46.58L0.699219 24.3413H0V22.851H0.699219L9.24121 0H15.3936ZM1417.61 206.404L1425.88 228.51H1429.49V184.298H1425.88L1417.61 206.404ZM1401.7 228.51H1405.31L1413.57 206.404L1405.31 184.298H1401.7V228.51ZM1368.8 206.404L1377.07 228.51H1380.67V184.298H1377.07L1368.8 206.404ZM1352.89 228.51H1356.5L1364.76 206.404L1356.5 184.298H1352.89V228.51ZM1319.99 206.404L1328.25 228.51H1331.86V184.298H1328.25L1319.99 206.404ZM1304.08 228.51H1307.68L1315.95 206.404L1307.68 184.298H1304.08V228.51ZM1271.18 206.404L1279.44 228.51H1283.05V184.298H1279.44L1271.18 206.404ZM1255.26 228.51H1258.87L1267.13 206.404L1258.87 184.298H1255.26V228.51ZM1222.36 206.404L1230.63 228.51H1234.24V184.298H1230.63L1222.36 206.404ZM1206.45 228.51H1210.06L1218.32 206.404L1210.06 184.298H1206.45V228.51ZM1173.55 206.404L1181.81 228.51H1185.42V184.298H1181.81L1173.55 206.404ZM1157.64 228.51H1161.25L1169.51 206.404L1161.25 184.298H1157.64V228.51ZM1124.74 206.404L1133 228.51H1136.61V184.298H1133L1124.74 206.404ZM1108.82 228.51H1112.43L1120.7 206.404L1112.43 184.298H1108.82V228.51ZM1075.93 206.404L1084.19 228.51H1087.8V184.298H1084.19L1075.93 206.404ZM1060.01 228.51H1063.62L1071.88 206.404L1063.62 184.298H1060.01V228.51ZM1027.11 206.404L1035.38 228.51H1038.99V184.298H1035.38L1027.11 206.404ZM1011.2 228.51H1014.81L1023.07 206.404L1014.81 184.298H1011.2V228.51ZM978.301 206.404L986.564 228.51H990.174V184.298H986.564L978.301 206.404ZM962.387 228.51H965.996L974.259 206.404L965.996 184.298H962.387V228.51ZM929.487 206.404L937.752 228.51H941.361V184.298H937.752L929.487 206.404ZM913.574 228.51H917.184L925.446 206.404L917.184 184.298H913.574V228.51ZM880.675 206.404L888.939 228.51H892.549V184.298H888.939L880.675 206.404ZM864.762 228.51H868.371L876.634 206.404L868.371 184.298H864.762V228.51ZM831.835 206.404L840.099 228.51H843.708V184.298H840.099L831.835 206.404ZM815.921 228.51H819.53L827.793 206.404L819.53 184.298H815.921V228.51ZM783.021 206.404L791.286 228.51H794.896V184.298H791.286L783.021 206.404ZM767.108 228.51H770.718L778.98 206.404L770.718 184.298H767.108V228.51ZM734.209 206.404L742.473 228.51H746.083V184.298H742.473L734.209 206.404ZM718.295 228.51H721.905L730.168 206.404L721.905 184.298H718.295V228.51ZM685.396 206.404L693.66 228.51H697.271V184.298H693.66L685.396 206.404ZM669.482 228.51H673.093L681.355 206.404L673.093 184.298H669.482V228.51ZM636.584 206.404L644.848 228.51H648.458V184.298H644.848L636.584 206.404ZM620.671 228.51H624.28L632.543 206.404L624.28 184.298H620.671V228.51ZM587.771 206.404L596.035 228.51H599.646V184.298H596.035L587.771 206.404ZM571.857 228.51H575.468L583.73 206.404L575.468 184.298H571.857V228.51ZM538.959 206.404L547.223 228.51H550.833V184.298H547.223L538.959 206.404ZM523.045 228.51H526.655L534.918 206.404L526.655 184.298H523.045V228.51ZM490.146 206.404L498.41 228.51H502.02V184.298H498.41L490.146 206.404ZM474.232 228.51H477.843L486.105 206.404L477.843 184.298H474.232V228.51ZM441.334 206.404L449.598 228.51H453.208V184.298H449.598L441.334 206.404ZM425.42 228.51H429.029L437.293 206.404L429.029 184.298H425.42V228.51ZM392.521 206.404L400.785 228.51H404.395V184.298H400.785L392.521 206.404ZM376.607 228.51H380.217L388.479 206.404L380.217 184.298H376.607V228.51ZM343.708 206.404L351.973 228.51H355.582V184.298H351.973L343.708 206.404ZM327.795 228.51H331.404L339.667 206.404L331.404 184.298H327.795V228.51ZM294.896 206.404L303.159 228.51H306.77V184.298H303.159L294.896 206.404ZM278.982 228.51H282.592L290.854 206.404L282.592 184.298H278.982V228.51ZM246.083 206.404L254.347 228.51H257.957V184.298H254.347L246.083 206.404ZM230.169 228.51H233.779L242.042 206.404L233.779 184.298H230.169V228.51ZM197.271 206.404L205.534 228.51H209.145V184.298H205.534L197.271 206.404ZM181.356 228.51H184.967L193.229 206.404L184.967 184.298H181.356V228.51ZM148.458 206.404L156.722 228.51H160.332V184.298H156.722L148.458 206.404ZM132.544 228.51H136.154L144.417 206.404L136.154 184.298H132.544V228.51ZM99.6455 206.404L107.909 228.51H111.519V184.298H107.909L99.6455 206.404ZM83.7314 228.51H87.3408L95.6045 206.404L87.3408 184.298H83.7314V228.51ZM50.833 206.404L59.0967 228.51H62.7061V184.298H59.0967L50.833 206.404ZM34.9189 228.51H38.5283L46.792 206.404L38.5283 184.298H34.9189V228.51ZM2.02051 206.404L10.2842 228.51H13.8936V184.298H10.2842L2.02051 206.404ZM88.6123 137.984V183.419L96.9268 205.659H98.3242L106.638 183.419V137.984L98.3242 115.745H96.9268L88.6123 137.984ZM186.238 137.984V183.419L194.552 205.659H195.949L204.263 183.419V137.984L195.949 115.745H194.552L186.238 137.984ZM283.863 137.984V183.419L292.177 205.659H293.574L301.889 183.419V137.984L293.574 115.745H292.177L283.863 137.984ZM381.488 137.984V183.419L389.802 205.659H391.2L399.514 183.419V137.984L391.2 115.745H389.802L381.488 137.984ZM479.114 137.982V183.421L487.428 205.659H488.825L497.139 183.419V137.984L488.825 115.745H487.428L479.114 137.982ZM576.739 137.984V183.419L585.053 205.659H586.45L594.764 183.419V137.984L586.45 115.745H585.053L576.739 137.984ZM674.364 137.984V183.419L682.678 205.659H684.075L692.389 183.421V137.982L684.075 115.745H682.678L674.364 137.984ZM771.989 137.984V183.419L780.303 205.659H781.7L790.015 183.419V137.984L781.7 115.745H780.303L771.989 137.984ZM869.643 137.984V183.419L877.956 205.659H879.354L887.668 183.419V137.984L879.354 115.745H877.956L869.643 137.984ZM967.268 137.984V183.419L975.581 205.659H976.979L985.293 183.419V137.984L976.979 115.745H975.581L967.268 137.984ZM1064.89 137.984V183.419L1073.21 205.659H1074.6L1082.92 183.419V137.984L1074.6 115.745H1073.21L1064.89 137.984ZM1162.52 137.984V183.419L1170.83 205.659H1172.23L1180.54 183.419V137.984L1172.23 115.745H1170.83L1162.52 137.984ZM1260.14 137.984V183.419L1268.46 205.659H1269.85L1278.17 183.419V137.984L1269.85 115.745H1268.46L1260.14 137.984ZM1357.77 137.984V183.419L1366.08 205.659H1367.48L1375.79 183.419V137.984L1367.48 115.745H1366.08L1357.77 137.984ZM1406.58 137.984V183.419L1414.89 205.659H1416.29L1424.61 183.419V137.984L1416.29 115.745H1414.89L1406.58 137.984ZM1308.96 137.984V183.419L1317.27 205.659H1318.67L1326.98 183.419V137.984L1318.67 115.745H1317.27L1308.96 137.984ZM1211.33 137.984V183.419L1219.64 205.659H1221.04L1229.36 183.419V137.984L1221.04 115.745H1219.64L1211.33 137.984ZM1113.71 137.982V183.421L1122.02 205.659H1123.42L1131.73 183.419V137.984L1123.42 115.745H1122.02L1113.71 137.982ZM1016.08 137.984V183.419L1024.39 205.659H1025.79L1034.11 183.419V137.984L1025.79 115.745H1024.39L1016.08 137.984ZM918.455 137.984V183.419L926.769 205.659H928.167L936.48 183.419V137.984L928.167 115.745H926.769L918.455 137.984ZM820.802 137.984V183.419L829.115 205.659H830.514L838.855 183.343V138.06L830.514 115.745H829.115L820.802 137.984ZM723.177 137.984V183.419L731.49 205.659H732.888L741.201 183.419V137.984L732.888 115.745H731.49L723.177 137.984ZM625.552 137.984V183.419L633.865 205.659H635.263L643.576 183.419V137.984L635.263 115.745H633.865L625.552 137.984ZM527.927 137.984V183.419L536.24 205.659H537.638L545.951 183.419V137.984L537.638 115.745H536.24L527.927 137.984ZM430.301 137.984V183.419L438.615 205.659H440.013L448.326 183.419V137.984L440.013 115.745H438.615L430.301 137.984ZM332.676 137.984V183.419L340.989 205.659H342.388L350.701 183.419V137.984L342.388 115.745H340.989L332.676 137.984ZM235.051 137.984V183.419L243.364 205.659H244.762L253.075 183.419V137.984L244.762 115.745H243.364L235.051 137.984ZM137.425 137.984V183.419L145.739 205.659H147.137L155.45 183.419V137.984L147.137 115.745H145.739L137.425 137.984ZM39.7998 137.984V183.419L48.1133 205.659H49.5117L57.8252 183.419V137.984L49.5117 115.745H48.1133L39.7998 137.984ZM1426.11 182.808H1429.72L1437.98 160.702L1429.72 138.596H1426.11V182.808ZM1393.21 160.702L1401.47 182.808H1405.08V138.596H1401.47L1393.21 160.702ZM1377.29 182.808H1380.9L1389.17 160.702L1380.9 138.596H1377.29V182.808ZM1344.4 160.702L1352.66 182.808H1356.27V138.596H1352.66L1344.4 160.702ZM1328.48 182.808H1332.09L1340.35 160.702L1332.09 138.596H1328.48V182.808ZM1295.58 160.702L1303.85 182.808H1307.46V138.596H1303.85L1295.58 160.702ZM1279.67 182.808H1283.28L1291.54 160.702L1283.28 138.596H1279.67V182.808ZM1246.77 160.702L1255.03 182.808H1258.64V138.596H1255.03L1246.77 160.702ZM1230.86 182.808H1234.47L1242.73 160.702L1234.47 138.596H1230.86V182.808ZM1197.96 160.702L1206.22 182.808H1209.83V138.596H1206.22L1197.96 160.702ZM1182.04 182.808H1185.65L1193.92 160.702L1185.65 138.596H1182.04V182.808ZM1149.14 160.702L1157.41 182.808H1161.02V138.596H1157.41L1149.14 160.702ZM1133.23 182.808H1136.84L1145.1 160.702L1136.84 138.596H1133.23V182.808ZM1100.33 160.702L1108.6 182.808H1112.21V138.596H1108.6L1100.33 160.702ZM1084.42 182.808H1088.03L1096.29 160.702L1088.03 138.596H1084.42V182.808ZM1051.52 160.702L1059.78 182.808H1063.39V138.596H1059.78L1051.52 160.702ZM1035.61 182.808H1039.21L1047.48 160.702L1039.21 138.596H1035.61V182.808ZM1002.71 160.702L1010.97 182.808H1014.58V138.596H1010.97L1002.71 160.702ZM986.793 182.808H990.402L998.666 160.702L990.402 138.596H986.793V182.808ZM953.895 160.702L962.158 182.808H965.768V138.596H962.158L953.895 160.702ZM937.98 182.808H941.59L949.854 160.702L941.59 138.596H937.98V182.808ZM905.081 160.702L913.346 182.808H916.955V138.596H913.346L905.081 160.702ZM889.168 182.808H892.777L901.04 160.702L892.777 138.596H889.168V182.808ZM856.269 160.702L864.532 182.808H868.143V138.596H864.532L856.269 160.702ZM840.355 182.808H843.965L852.228 160.702L843.965 138.596H840.355V182.808ZM807.429 160.702L815.692 182.808H819.302V138.596H815.692L807.429 160.702ZM791.515 182.808H795.124L803.387 160.702L795.124 138.596H791.515V182.808ZM758.615 160.702L766.879 182.808H770.489V138.596H766.879L758.615 160.702ZM742.701 182.808H746.312L754.574 160.702L746.312 138.596H742.701V182.808ZM709.803 160.702L718.066 182.808H721.677V138.596H718.066L709.803 160.702ZM693.889 182.808H697.499L705.762 160.702L697.499 138.596H693.889V182.808ZM660.99 160.702L669.254 182.808H672.864V138.596H669.254L660.99 160.702ZM645.076 182.808H648.687L656.949 160.702L648.687 138.596H645.076V182.808ZM612.178 160.702L620.442 182.808H624.052V138.596H620.442L612.178 160.702ZM596.264 182.808H599.874L608.137 160.702L599.874 138.596H596.264V182.808ZM563.365 160.702L571.629 182.808H575.239V138.596H571.629L563.365 160.702ZM547.451 182.808H551.062L559.324 160.702L551.062 138.596H547.451V182.808ZM514.553 160.702L522.816 182.808H526.427V138.596H522.816L514.553 160.702ZM498.639 182.808H502.249L510.512 160.702L502.249 138.596H498.639V182.808ZM465.74 160.702L474.004 182.808H477.614V138.596H474.004L465.74 160.702ZM449.826 182.808H453.437L461.699 160.702L453.437 138.596H449.826V182.808ZM416.928 160.702L425.191 182.808H428.801V138.596H425.191L416.928 160.702ZM401.014 182.808H404.623L412.887 160.702L404.623 138.596H401.014V182.808ZM368.115 160.702L376.379 182.808H379.988V138.596H376.379L368.115 160.702ZM352.201 182.808H355.811L364.073 160.702L355.811 138.596H352.201V182.808ZM319.302 160.702L327.566 182.808H331.176V138.596H327.566L319.302 160.702ZM303.389 182.808H306.998L315.261 160.702L306.998 138.596H303.389V182.808ZM270.489 160.702L278.754 182.808H282.363V138.596H278.754L270.489 160.702ZM254.575 182.808H258.186L266.448 160.702L258.186 138.596H254.575V182.808ZM221.677 160.702L229.94 182.808H233.551V138.596H229.94L221.677 160.702ZM205.763 182.808H209.373L217.636 160.702L209.373 138.596H205.763V182.808ZM172.864 160.702L181.128 182.808H184.738V138.596H181.128L172.864 160.702ZM156.95 182.808H160.561L168.823 160.702L160.561 138.596H156.95V182.808ZM124.052 160.702L132.315 182.808H135.925V138.596H132.315L124.052 160.702ZM108.138 182.808H111.748L120.011 160.702L111.748 138.596H108.138V182.808ZM75.2393 160.702L83.5029 182.808H87.1123V138.596H83.5029L75.2393 160.702ZM59.3252 182.808H62.9346L71.1982 160.702L62.9346 138.596H59.3252V182.808ZM26.4268 160.702L34.6904 182.808H38.2998V138.596H34.6904L26.4268 160.702ZM10.5127 182.808H14.1221L22.3857 160.702L14.1221 138.596H10.5127V182.808ZM1382.17 92.282V137.717L1390.49 159.957H1391.89L1400.2 137.717V92.282L1391.89 70.0432H1390.49L1382.17 92.282ZM1333.36 92.282V137.717L1341.68 159.957H1343.07L1351.39 137.717V92.282L1343.07 70.0432H1341.68L1333.36 92.282ZM1284.55 92.282V137.717L1292.86 159.957H1294.26L1302.58 137.717V92.282L1294.26 70.0432H1292.86L1284.55 92.282ZM1235.74 92.282V137.717L1244.05 159.957H1245.45L1253.76 137.717V92.282L1245.45 70.0432H1244.05L1235.74 92.282ZM1186.92 92.282V137.717L1195.24 159.957H1196.64L1204.95 137.717V92.282L1196.64 70.0432H1195.24L1186.92 92.282ZM1138.11 92.282V137.717L1146.43 159.957H1147.82L1156.14 137.717V92.282L1147.82 70.0432H1146.43L1138.11 92.282ZM1089.3 92.282V137.717L1097.61 159.957H1099.01L1107.32 137.717V92.282L1099.01 70.0432H1097.61L1089.3 92.282ZM1040.49 92.282V137.717L1048.8 159.957H1050.2L1058.51 137.717V92.282L1050.2 70.0432H1048.8L1040.49 92.282ZM991.674 92.282V137.717L999.988 159.957H1001.39L1009.7 137.717V92.282L1001.39 70.0432H999.988L991.674 92.282ZM942.861 92.282V137.717L951.175 159.957H952.573L960.887 137.717V92.282L952.573 70.0432H951.175L942.861 92.282ZM894.049 92.282V137.717L902.362 159.957H903.761L912.074 137.717V92.282L903.761 70.0432H902.362L894.049 92.282ZM845.208 92.3576V137.641L853.55 159.957H854.947L863.262 137.717V92.282L854.947 70.0432H853.55L845.208 92.3576ZM796.396 92.282V137.717L804.709 159.957H806.107L814.421 137.717V92.282L806.107 70.0432H804.709L796.396 92.282ZM747.583 92.282V137.717L755.896 159.957H757.294L765.608 137.717V92.282L757.294 70.0432H755.896L747.583 92.282ZM698.771 92.282V137.717L707.084 159.957H708.481L716.795 137.717V92.282L708.481 70.0432H707.084L698.771 92.282ZM649.958 92.282V137.717L658.271 159.957H659.669L667.982 137.717V92.282L659.669 70.0432H658.271L649.958 92.282ZM601.146 92.282V137.717L609.459 159.957H610.856L619.171 137.717V92.282L610.856 70.0432H609.459L601.146 92.282ZM552.333 92.282V137.717L560.646 159.957H562.044L570.357 137.717V92.282L562.044 70.0432H560.646L552.333 92.282ZM503.52 92.282V137.717L511.834 159.957H513.231L521.545 137.717V92.282L513.231 70.0432H511.834L503.52 92.282ZM454.708 92.28V137.719L463.021 159.957H464.419L472.732 137.717V92.282L464.419 70.0432H463.021L454.708 92.28ZM405.895 92.282V137.717L414.208 159.957H415.606L423.92 137.717V92.282L415.606 70.0432H414.208L405.895 92.282ZM357.082 92.282V137.717L365.396 159.957H366.794L375.107 137.717V92.282L366.794 70.0432H365.396L357.082 92.282ZM308.27 92.282V137.717L316.583 159.957H317.98L326.295 137.717V92.282L317.98 70.0432H316.583L308.27 92.282ZM259.457 92.282V137.717L267.771 159.957H269.168L277.482 137.717V92.282L269.168 70.0432H267.771L259.457 92.282ZM210.645 92.282V137.717L218.958 159.957H220.355L228.669 137.717V92.282L220.355 70.0432H218.958L210.645 92.282ZM161.832 92.28V137.719L170.146 159.957H171.543L179.856 137.717V92.282L171.543 70.0432H170.146L161.832 92.28ZM113.019 92.282V137.717L121.333 159.957H122.73L131.044 137.717V92.282L122.73 70.0432H121.333L113.019 92.282ZM64.2061 92.282V137.717L72.5195 159.957H73.918L82.2314 137.717V92.282L73.918 70.0432H72.5195L64.2061 92.282ZM15.3936 92.282V137.717L23.707 159.957H25.1055L33.4189 137.717V92.282L25.1055 70.0432H23.707L15.3936 92.282ZM1417.61 115L1425.88 137.106H1429.49V92.8942H1425.88L1417.61 115ZM1401.7 137.106H1405.31L1413.57 115L1405.31 92.8942H1401.7V137.106ZM1368.8 115L1377.07 137.106H1380.67V92.8942H1377.07L1368.8 115ZM1352.89 137.106H1356.5L1364.76 115L1356.5 92.8942H1352.89V137.106ZM1319.99 115L1328.25 137.106H1331.86V92.8942H1328.25L1319.99 115ZM1304.08 137.106H1307.68L1315.95 115L1307.68 92.8942H1304.08V137.106ZM1271.18 115L1279.44 137.106H1283.05V92.8942H1279.44L1271.18 115ZM1255.26 137.106H1258.87L1267.13 115L1258.87 92.8942H1255.26V137.106ZM1222.36 115L1230.63 137.106H1234.24V92.8942H1230.63L1222.36 115ZM1206.45 137.106H1210.06L1218.32 115L1210.06 92.8942H1206.45V137.106ZM1173.55 115L1181.81 137.106H1185.42V92.8942H1181.81L1173.55 115ZM1157.64 137.106H1161.25L1169.51 115L1161.25 92.8942H1157.64V137.106ZM1124.74 115L1133 137.106H1136.61V92.8942H1133L1124.74 115ZM1108.82 137.106H1112.43L1120.7 115L1112.43 92.8942H1108.82V137.106ZM1075.93 115L1084.19 137.106H1087.8V92.8942H1084.19L1075.93 115ZM1060.01 137.106H1063.62L1071.88 115L1063.62 92.8942H1060.01V137.106ZM1027.11 115L1035.38 137.106H1038.99V92.8942H1035.38L1027.11 115ZM1011.2 137.106H1014.81L1023.07 115L1014.81 92.8942H1011.2V137.106ZM978.301 115L986.564 137.106H990.174V92.8942H986.564L978.301 115ZM962.387 137.106H965.996L974.259 115L965.996 92.8942H962.387V137.106ZM929.487 115L937.752 137.106H941.361V92.8942H937.752L929.487 115ZM913.574 137.106H917.184L925.446 115L917.184 92.8942H913.574V137.106ZM880.675 115L888.939 137.106H892.549V92.8942H888.939L880.675 115ZM864.762 137.106H868.371L876.634 115L868.371 92.8942H864.762V137.106ZM831.835 115L840.099 137.106H843.708V92.8942H840.099L831.835 115ZM815.921 137.106H819.53L827.793 115L819.53 92.8942H815.921V137.106ZM783.021 115L791.286 137.106H794.896V92.8942H791.286L783.021 115ZM767.108 137.106H770.718L778.98 115L770.718 92.8942H767.108V137.106ZM734.209 115L742.473 137.106H746.083V92.8942H742.473L734.209 115ZM718.295 137.106H721.905L730.168 115L721.905 92.8942H718.295V137.106ZM685.396 115L693.66 137.106H697.271V92.8942H693.66L685.396 115ZM669.482 137.106H673.093L681.355 115L673.093 92.8942H669.482V137.106ZM636.584 115L644.848 137.106H648.458V92.8942H644.848L636.584 115ZM620.671 137.106H624.28L632.543 115L624.28 92.8942H620.671V137.106ZM587.771 115L596.035 137.106H599.646V92.8942H596.035L587.771 115ZM571.857 137.106H575.468L583.73 115L575.468 92.8942H571.857V137.106ZM538.959 115L547.223 137.106H550.833V92.8942H547.223L538.959 115ZM523.045 137.106H526.655L534.918 115L526.655 92.8942H523.045V137.106ZM490.146 115L498.41 137.106H502.02V92.8942H498.41L490.146 115ZM474.232 137.106H477.843L486.105 115L477.843 92.8942H474.232V137.106ZM441.334 115L449.598 137.106H453.208V92.8942H449.598L441.334 115ZM425.42 137.106H429.029L437.293 115L429.029 92.8942H425.42V137.106ZM392.521 115L400.785 137.106H404.395V92.8942H400.785L392.521 115ZM376.607 137.106H380.217L388.479 115L380.217 92.8942H376.607V137.106ZM343.708 115L351.973 137.106H355.582V92.8942H351.973L343.708 115ZM327.795 137.106H331.404L339.667 115L331.404 92.8942H327.795V137.106ZM294.896 115L303.159 137.106H306.77V92.8942H303.159L294.896 115ZM278.982 137.106H282.592L290.854 115L282.592 92.8942H278.982V137.106ZM246.083 115L254.347 137.106H257.957V92.8942H254.347L246.083 115ZM230.169 137.106H233.779L242.042 115L233.779 92.8942H230.169V137.106ZM197.271 115L205.534 137.106H209.145V92.8942H205.534L197.271 115ZM181.356 137.106H184.967L193.229 115L184.967 92.8942H181.356V137.106ZM148.458 115L156.722 137.106H160.332V92.8942H156.722L148.458 115ZM132.544 137.106H136.154L144.417 115L136.154 92.8942H132.544V137.106ZM99.6455 115L107.909 137.106H111.519V92.8942H107.909L99.6455 115ZM83.7314 137.106H87.3408L95.6045 115L87.3408 92.8942H83.7314V137.106ZM50.833 115L59.0967 137.106H62.7061V92.8942H59.0967L50.833 115ZM34.9189 137.106H38.5283L46.792 115L38.5283 92.8942H34.9189V137.106ZM2.02051 115L10.2842 137.106H13.8936V92.8942H10.2842L2.02051 115ZM88.6123 46.58V92.0151L96.9268 114.255H98.3242L106.638 92.0151V46.58L98.3242 24.3413H96.9268L88.6123 46.58ZM186.238 46.58V92.0151L194.552 114.255H195.949L204.263 92.0151V46.58L195.949 24.3413H194.552L186.238 46.58ZM283.863 46.58V92.0151L292.177 114.255H293.574L301.889 92.0151V46.58L293.574 24.3413H292.177L283.863 46.58ZM381.488 46.58V92.0151L389.802 114.255H391.2L399.514 92.0151V46.58L391.2 24.3413H389.802L381.488 46.58ZM479.114 46.5781V92.0171L487.428 114.255H488.825L497.139 92.0151V46.58L488.825 24.3413H487.428L479.114 46.5781ZM576.739 46.58V92.0151L585.053 114.255H586.45L594.764 92.0151V46.58L586.45 24.3413H585.053L576.739 46.58ZM674.364 46.58V92.0151L682.678 114.255H684.075L692.389 92.0171V46.5781L684.075 24.3413H682.678L674.364 46.58ZM771.989 46.58V92.0151L780.303 114.255H781.7L790.015 92.0151V46.58L781.7 24.3413H780.303L771.989 46.58ZM869.643 46.58V92.0151L877.956 114.255H879.354L887.668 92.0151V46.58L879.354 24.3413H877.956L869.643 46.58ZM967.268 46.58V92.0151L975.581 114.255H976.979L985.293 92.0151V46.58L976.979 24.3413H975.581L967.268 46.58ZM1064.89 46.58V92.0151L1073.21 114.255H1074.6L1082.92 92.0151V46.58L1074.6 24.3413H1073.21L1064.89 46.58ZM1162.52 46.58V92.0151L1170.83 114.255H1172.23L1180.54 92.0151V46.58L1172.23 24.3413H1170.83L1162.52 46.58ZM1260.14 46.58V92.0151L1268.46 114.255H1269.85L1278.17 92.0151V46.58L1269.85 24.3413H1268.46L1260.14 46.58ZM1357.77 46.58V92.0151L1366.08 114.255H1367.48L1375.79 92.0151V46.58L1367.48 24.3413H1366.08L1357.77 46.58ZM1406.58 46.58V92.0151L1414.89 114.255H1416.29L1424.61 92.0151V46.58L1416.29 24.3413H1414.89L1406.58 46.58ZM1308.96 46.58V92.0151L1317.27 114.255H1318.67L1326.98 92.0151V46.58L1318.67 24.3413H1317.27L1308.96 46.58ZM1211.33 46.58V92.0151L1219.64 114.255H1221.04L1229.36 92.0151V46.58L1221.04 24.3413H1219.64L1211.33 46.58ZM1113.71 46.5781V92.0171L1122.02 114.255H1123.42L1131.73 92.0151V46.58L1123.42 24.3413H1122.02L1113.71 46.5781ZM1016.08 46.58V92.0151L1024.39 114.255H1025.79L1034.11 92.0151V46.58L1025.79 24.3413H1024.39L1016.08 46.58ZM918.455 46.58V92.0151L926.769 114.255H928.167L936.48 92.0151V46.58L928.167 24.3413H926.769L918.455 46.58ZM820.802 46.58V92.0151L829.115 114.255H830.514L838.855 91.9395V46.6557L830.514 24.3413H829.115L820.802 46.58ZM723.177 46.58V92.0151L731.49 114.255H732.888L741.201 92.0151V46.58L732.888 24.3413H731.49L723.177 46.58ZM625.552 46.58V92.0151L633.865 114.255H635.263L643.576 92.0151V46.58L635.263 24.3413H633.865L625.552 46.58ZM527.927 46.58V92.0151L536.24 114.255H537.638L545.951 92.0151V46.58L537.638 24.3413H536.24L527.927 46.58ZM430.301 46.58V92.0151L438.615 114.255H440.013L448.326 92.0151V46.58L440.013 24.3413H438.615L430.301 46.58ZM332.676 46.58V92.0151L340.989 114.255H342.388L350.701 92.0151V46.58L342.388 24.3413H340.989L332.676 46.58ZM235.051 46.58V92.0151L243.364 114.255H244.762L253.075 92.0151V46.58L244.762 24.3413H243.364L235.051 46.58ZM137.425 46.58V92.0151L145.739 114.255H147.137L155.45 92.0151V46.58L147.137 24.3413H145.739L137.425 46.58ZM39.7998 46.58V92.0151L48.1133 114.255H49.5117L57.8252 92.0151V46.58L49.5117 24.3413H48.1133L39.7998 46.58ZM1426.11 91.4039H1429.72L1437.98 69.2981L1429.72 47.1922H1426.11V91.4039ZM1393.21 69.2981L1401.47 91.4039H1405.08V47.1922H1401.47L1393.21 69.2981ZM1377.29 91.4039H1380.9L1389.17 69.2981L1380.9 47.1922H1377.29V91.4039ZM1344.4 69.2981L1352.66 91.4039H1356.27V47.1922H1352.66L1344.4 69.2981ZM1328.48 91.4039H1332.09L1340.35 69.2981L1332.09 47.1922H1328.48V91.4039ZM1295.58 69.2981L1303.85 91.4039H1307.46V47.1922H1303.85L1295.58 69.2981ZM1279.67 91.4039H1283.28L1291.54 69.2981L1283.28 47.1922H1279.67V91.4039ZM1246.77 69.2981L1255.03 91.4039H1258.64V47.1922H1255.03L1246.77 69.2981ZM1230.86 91.4039H1234.47L1242.73 69.2981L1234.47 47.1922H1230.86V91.4039ZM1197.96 69.2981L1206.22 91.4039H1209.83V47.1922H1206.22L1197.96 69.2981ZM1182.04 91.4039H1185.65L1193.92 69.2981L1185.65 47.1922H1182.04V91.4039ZM1149.14 69.2981L1157.41 91.4039H1161.02V47.1922H1157.41L1149.14 69.2981ZM1133.23 91.4039H1136.84L1145.1 69.2981L1136.84 47.1922H1133.23V91.4039ZM1100.33 69.2981L1108.6 91.4039H1112.21V47.1922H1108.6L1100.33 69.2981ZM1084.42 91.4039H1088.03L1096.29 69.2981L1088.03 47.1922H1084.42V91.4039ZM1051.52 69.2981L1059.78 91.4039H1063.39V47.1922H1059.78L1051.52 69.2981ZM1035.61 91.4039H1039.21L1047.48 69.2981L1039.21 47.1922H1035.61V91.4039ZM1002.71 69.2981L1010.97 91.4039H1014.58V47.1922H1010.97L1002.71 69.2981ZM986.793 91.4039H990.402L998.666 69.2981L990.402 47.1922H986.793V91.4039ZM953.895 69.2981L962.158 91.4039H965.768V47.1922H962.158L953.895 69.2981ZM937.98 91.4039H941.59L949.854 69.2981L941.59 47.1922H937.98V91.4039ZM905.081 69.2981L913.346 91.4039H916.955V47.1922H913.346L905.081 69.2981ZM889.168 91.4039H892.777L901.04 69.2981L892.777 47.1922H889.168V91.4039ZM856.269 69.2981L864.532 91.4039H868.143V47.1922H864.532L856.269 69.2981ZM840.355 91.4039H843.965L852.228 69.2981L843.965 47.1922H840.355V91.4039ZM807.429 69.2981L815.692 91.4039H819.302V47.1922H815.692L807.429 69.2981ZM791.515 91.4039H795.124L803.387 69.2981L795.124 47.1922H791.515V91.4039ZM758.615 69.2981L766.879 91.4039H770.489V47.1922H766.879L758.615 69.2981ZM742.701 91.4039H746.312L754.574 69.2981L746.312 47.1922H742.701V91.4039ZM709.803 69.2981L718.066 91.4039H721.677V47.1922H718.066L709.803 69.2981ZM693.889 91.4039H697.499L705.762 69.2981L697.499 47.1922H693.889V91.4039ZM660.99 69.2981L669.254 91.4039H672.864V47.1922H669.254L660.99 69.2981ZM645.076 91.4039H648.687L656.949 69.2981L648.687 47.1922H645.076V91.4039ZM612.178 69.2981L620.442 91.4039H624.052V47.1922H620.442L612.178 69.2981ZM596.264 91.4039H599.874L608.137 69.2981L599.874 47.1922H596.264V91.4039ZM563.365 69.2981L571.629 91.4039H575.239V47.1922H571.629L563.365 69.2981ZM547.451 91.4039H551.062L559.324 69.2981L551.062 47.1922H547.451V91.4039ZM514.553 69.2981L522.816 91.4039H526.427V47.1922H522.816L514.553 69.2981ZM498.639 91.4039H502.249L510.512 69.2981L502.249 47.1922H498.639V91.4039ZM465.74 69.2981L474.004 91.4039H477.614V47.1922H474.004L465.74 69.2981ZM449.826 91.4039H453.437L461.699 69.2981L453.437 47.1922H449.826V91.4039ZM416.928 69.2981L425.191 91.4039H428.801V47.1922H425.191L416.928 69.2981ZM401.014 91.4039H404.623L412.887 69.2981L404.623 47.1922H401.014V91.4039ZM368.115 69.2981L376.379 91.4039H379.988V47.1922H376.379L368.115 69.2981ZM352.201 91.4039H355.811L364.073 69.2981L355.811 47.1922H352.201V91.4039ZM319.302 69.2981L327.566 91.4039H331.176V47.1922H327.566L319.302 69.2981ZM303.389 91.4039H306.998L315.261 69.2981L306.998 47.1922H303.389V91.4039ZM270.489 69.2981L278.754 91.4039H282.363V47.1922H278.754L270.489 69.2981ZM254.575 91.4039H258.186L266.448 69.2981L258.186 47.1922H254.575V91.4039ZM221.677 69.2981L229.94 91.4039H233.551V47.1922H229.94L221.677 69.2981ZM205.763 91.4039H209.373L217.636 69.2981L209.373 47.1922H205.763V91.4039ZM172.864 69.2981L181.128 91.4039H184.738V47.1922H181.128L172.864 69.2981ZM156.95 91.4039H160.561L168.823 69.2981L160.561 47.1922H156.95V91.4039ZM124.052 69.2981L132.315 91.4039H135.925V47.1922H132.315L124.052 69.2981ZM108.138 91.4039H111.748L120.011 69.2981L111.748 47.1922H108.138V91.4039ZM75.2393 69.2981L83.5029 91.4039H87.1123V47.1922H83.5029L75.2393 69.2981ZM59.3252 91.4039H62.9346L71.1982 69.2981L62.9346 47.1922H59.3252V91.4039ZM26.4268 69.2981L34.6904 91.4039H38.2998V47.1922H34.6904L26.4268 69.2981ZM10.5127 91.4039H14.1221L22.3857 69.2981L14.1221 47.1922H10.5127V91.4039ZM1417.61 23.5961L1425.88 45.7019H1429.49V1.49028H1425.88L1417.61 23.5961ZM1401.7 45.7019H1405.31L1413.57 23.5961L1405.31 1.49028H1401.7V45.7019ZM1368.8 23.5961L1377.07 45.7019H1380.67V1.49028H1377.07L1368.8 23.5961ZM1352.89 45.7019H1356.5L1364.76 23.5961L1356.5 1.49028H1352.89V45.7019ZM1319.99 23.5961L1328.25 45.7019H1331.86V1.49028H1328.25L1319.99 23.5961ZM1304.08 45.7019H1307.68L1315.95 23.5961L1307.68 1.49028H1304.08V45.7019ZM1271.18 23.5961L1279.44 45.7019H1283.05V1.49028H1279.44L1271.18 23.5961ZM1255.26 45.7019H1258.87L1267.13 23.5961L1258.87 1.49028H1255.26V45.7019ZM1222.36 23.5961L1230.63 45.7019H1234.24V1.49028H1230.63L1222.36 23.5961ZM1206.45 45.7019H1210.06L1218.32 23.5961L1210.06 1.49028H1206.45V45.7019ZM1173.55 23.5961L1181.81 45.7019H1185.42V1.49028H1181.81L1173.55 23.5961ZM1157.64 45.7019H1161.25L1169.51 23.5961L1161.25 1.49028H1157.64V45.7019ZM1124.74 23.5961L1133 45.7019H1136.61V1.49028H1133L1124.74 23.5961ZM1108.82 45.7019H1112.43L1120.7 23.5961L1112.43 1.49028H1108.82V45.7019ZM1075.93 23.5961L1084.19 45.7019H1087.8V1.49028H1084.19L1075.93 23.5961ZM1060.01 45.7019H1063.62L1071.88 23.5961L1063.62 1.49028H1060.01V45.7019ZM1027.11 23.5961L1035.38 45.7019H1038.99V1.49028H1035.38L1027.11 23.5961ZM1011.2 45.7019H1014.81L1023.07 23.5961L1014.81 1.49028H1011.2V45.7019ZM978.301 23.5961L986.564 45.7019H990.174V1.49028H986.564L978.301 23.5961ZM962.387 45.7019H965.996L974.259 23.5961L965.996 1.49028H962.387V45.7019ZM929.487 23.5961L937.752 45.7019H941.361V1.49028H937.752L929.487 23.5961ZM913.574 45.7019H917.184L925.446 23.5961L917.184 1.49028H913.574V45.7019ZM880.675 23.5961L888.939 45.7019H892.549V1.49028H888.939L880.675 23.5961ZM864.762 45.7019H868.371L876.634 23.5961L868.371 1.49028H864.762V45.7019ZM831.835 23.5961L840.099 45.7019H843.708V1.49028H840.099L831.835 23.5961ZM815.921 45.7019H819.53L827.793 23.5961L819.53 1.49028H815.921V45.7019ZM783.021 23.5961L791.286 45.7019H794.896V1.49028H791.286L783.021 23.5961ZM767.108 45.7019H770.718L778.98 23.5961L770.718 1.49028H767.108V45.7019ZM734.209 23.5961L742.473 45.7019H746.083V1.49028H742.473L734.209 23.5961ZM718.295 45.7019H721.905L730.168 23.5961L721.905 1.49028H718.295V45.7019ZM685.396 23.5961L693.66 45.7019H697.271V1.49028H693.66L685.396 23.5961ZM669.482 45.7019H673.093L681.355 23.5961L673.093 1.49028H669.482V45.7019ZM636.584 23.5961L644.848 45.7019H648.458V1.49028H644.848L636.584 23.5961ZM620.671 45.7019H624.28L632.543 23.5961L624.28 1.49028H620.671V45.7019ZM587.771 23.5961L596.035 45.7019H599.646V1.49028H596.035L587.771 23.5961ZM571.857 45.7019H575.468L583.73 23.5961L575.468 1.49028H571.857V45.7019ZM538.959 23.5961L547.223 45.7019H550.833V1.49028H547.223L538.959 23.5961ZM523.045 45.7019H526.655L534.918 23.5961L526.655 1.49028H523.045V45.7019ZM490.146 23.5961L498.41 45.7019H502.02V1.49028H498.41L490.146 23.5961ZM474.232 45.7019H477.843L486.105 23.5961L477.843 1.49028H474.232V45.7019ZM441.334 23.5961L449.598 45.7019H453.208V1.49028H449.598L441.334 23.5961ZM425.42 45.7019H429.029L437.293 23.5961L429.029 1.49028H425.42V45.7019ZM392.521 23.5961L400.785 45.7019H404.395V1.49028H400.785L392.521 23.5961ZM376.607 45.7019H380.217L388.479 23.5961L380.217 1.49028H376.607V45.7019ZM343.708 23.5961L351.973 45.7019H355.582V1.49028H351.973L343.708 23.5961ZM327.795 45.7019H331.404L339.667 23.5961L331.404 1.49028H327.795V45.7019ZM294.896 23.5961L303.159 45.7019H306.77V1.49028H303.159L294.896 23.5961ZM278.982 45.7019H282.592L290.854 23.5961L282.592 1.49028H278.982V45.7019ZM246.083 23.5961L254.347 45.7019H257.957V1.49028H254.347L246.083 23.5961ZM230.169 45.7019H233.779L242.042 23.5961L233.779 1.49028H230.169V45.7019ZM197.271 23.5961L205.534 45.7019H209.145V1.49028H205.534L197.271 23.5961ZM181.356 45.7019H184.967L193.229 23.5961L184.967 1.49028H181.356V45.7019ZM148.458 23.5961L156.722 45.7019H160.332V1.49028H156.722L148.458 23.5961ZM132.544 45.7019H136.154L144.417 23.5961L136.154 1.49028H132.544V45.7019ZM99.6455 23.5961L107.909 45.7019H111.519V1.49028H107.909L99.6455 23.5961ZM83.7314 45.7019H87.3408L95.6045 23.5961L87.3408 1.49028H83.7314V45.7019ZM50.833 23.5961L59.0967 45.7019H62.7061V1.49028H59.0967L50.833 23.5961ZM34.9189 45.7019H38.5283L46.792 23.5961L38.5283 1.49028H34.9189V45.7019ZM2.02051 23.5961L10.2842 45.7019H13.8936V1.49028H10.2842L2.02051 23.5961Z" fill="url(#paint0_linear_384_866)"/>
<defs>
<linearGradient id="paint0_linear_384_866" x1="720" y1="0" x2="720" y2="230" gradientUnits="userSpaceOnUse">
<stop stop-color="white"/>
<stop offset="1" stop-color="white" stop-opacity="0"/>
</linearGradient>
</defs>
</svg>
